<?xml version="1.0" standalone="no"?>
<!DOCTYPE svg PUBLIC "-//W3C//DTD SVG 1.1//EN" "http://www.w3.org/Graphics/SVG/1.1/DTD/svg11.dtd" >
<svg xmlns="http://www.w3.org/2000/svg">
<metadata>Generated by IcoMoon</metadata>
<defs>
<font id="custom-fa" horiz-adv-x="1024">
<font-face units-per-em="1024" ascent="960" descent="-64" />
<missing-glyph horiz-adv-x="1024" />
<glyph unicode="&#x20;" horiz-adv-x="512" d="" />
<glyph unicode="&#xe900;" glyph-name="minus-circle" d="M280 412c-13.2 0-24 10.8-24 24v24c0 13.2 10.8 24 24 24h464c13.2 0 24-10.8 24-24v-24c0-13.2-10.8-24-24-24h-464zM1008 448c0-274-222-496-496-496s-496 222-496 496 222 496 496 496 496-222 496-496zM944 448c0 239.8-194.6 432-432 432-239.8 0-432-194.6-432-432 0-239.8 194.6-432 432-432 239.8 0 432 194.6 432 432z" />
<glyph unicode="&#xe901;" glyph-name="home" horiz-adv-x="1152" d="M1082 501.68l-122 99.66v154.8c0 6.627-5.373 12-12 12v0h-40c-6.627 0-12-5.373-12-12v0-102.66l-279.62 228.24c-10.938 8.878-25.031 14.255-40.38 14.255s-29.442-5.376-40.499-14.349l0.119 0.094-465.62-380.040c-3.608-2.957-5.892-7.413-5.892-12.403 0-3.833 1.348-7.351 3.595-10.106l-0.023 0.029 20.2-24.82c2.957-3.606 7.412-5.889 12.401-5.889 3.798 0 7.286 1.323 10.030 3.533l-0.031-0.024 81.72 66.76v-486c0-17.673 14.327-32 32-32v0h256c17.673 0 32 14.327 32 32v0 256l128-0.6v-256.16c0-17.673 14.327-32 32-32v0l256 0.66c17.673 0 32 14.327 32 32v0 486.1l81.72-66.76c2.728-2.23 6.251-3.582 10.089-3.582 4.994 0 9.454 2.288 12.388 5.873l0.023 0.028 20.2 24.82c2.218 2.724 3.562 6.237 3.562 10.065 0 5.030-2.321 9.519-5.952 12.452l-0.030 0.024zM895.78 64.5h0.2l-192-0.6v256.34c-0.056 17.615-14.293 31.887-31.889 32h-0.011l-192 0.54c-0.030 0-0.065 0-0.1 0-17.673 0-32-14.327-32-32 0 0 0 0 0 0v0-256.28h-191.98v506.48l320 261.14 320-261.14z" />
<glyph unicode="&#xe902;" glyph-name="times-circle" d="M512 944c-274 0-496-222-496-496s222-496 496-496 496 222 496 496-222 496-496 496zM512 16c-237.4 0-432 192.2-432 432 0 237.4 192.2 432 432 432 237.4 0 432-192.2 432-432 0-237.4-192.2-432-432-432zM701.6 586.6l-138.6-138.6 138.6-138.6c9.4-9.4 9.4-24.6 0-34l-17-17c-9.4-9.4-24.6-9.4-34 0l-138.6 138.6-138.6-138.6c-9.4-9.4-24.6-9.4-34 0l-17 17c-9.4 9.4-9.4 24.6 0 34l138.6 138.6-138.6 138.6c-9.4 9.4-9.4 24.6 0 34l17 17c9.4 9.4 24.6 9.4 34 0l138.6-138.6 138.6 138.6c9.4 9.4 24.6 9.4 34 0l17-17c9.2-9.4 9.2-24.6 0-34z" />
<glyph unicode="&#xe903;" glyph-name="search" d="M1017-3.2l-258 258c-4.6 4.6-10.6 7-17 7h-20.6c68.6 74.2 110.6 173.2 110.6 282.2 0 229.8-186.2 416-416 416s-416-186.2-416-416 186.2-416 416-416c109 0 208 42 282.2 110.4v-20.4c0-6.4 2.6-12.4 7-17l258-258c9.4-9.4 24.6-9.4 34 0l19.8 19.8c9.4 9.4 9.4 24.6 0 34zM416 192c-194.6 0-352 157.4-352 352s157.4 352 352 352 352-157.4 352-352-157.4-352-352-352z" />
<glyph unicode="&#xe904;" glyph-name="envelope-open-dollar" d="M989.18 630.96c-3.96 3.26-44.38 35.82-93.18 75.060v61.98c0 35.34-28.66 64-64 64h-92.94c-8.26 6.62-15.42 12.32-20.4 16.28-44.2 35.34-119.78 111.72-206.66 111.72-86.42 0-161.28-75.44-206.68-111.72-5.060-4.020-12.2-9.74-20.4-16.28h-92.92c-35.34 0-64-28.66-64-64v-61.96c-49.040-39.42-89.5-72.020-92.96-74.86-21.459-17.734-35.033-44.351-35.040-74.139v-525.041c0-53.020 42.98-96 96-96h832c53.020 0 96 42.98 96 96v524.98c0 28.62-12.76 55.76-34.82 73.98zM512 896c43.54 0 89.28-33.44 126.28-64h-252.48c37.060 30.54 82.84 64 126.2 64zM192 768h640v-346.7c-64.66-52-130.6-104.88-173.18-138.68-33.7-26.86-100.38-91.36-146.82-90.62-46.42-0.76-113.12 63.76-146.82 90.64-42.58 33.8-108.48 86.66-173.18 138.68v346.68zM64 557.040c0 9.6 4.26 18.62 11.68 24.72 2.48 2.040 23.24 18.76 52.32 42.16v-151.1c-23.060 18.56-45.020 36.26-64 51.56v32.66zM960 32c0-17.64-14.36-32-32-32h-832c-17.64 0-32 14.36-32 32v410.18c85.5-68.88 198.62-159.84 261.36-209.64 40.98-32.72 113.48-105.060 186.64-104.52 72.9-0.52 144.54 70.92 186.62 104.52 62.82 49.86 175.86 140.78 261.38 209.66v-410.2zM960 524.38c-19.24-15.5-40.54-32.68-64-51.58v151.080c28.88-23.24 49.6-39.94 52.4-42.24 7.38-6.1 11.6-15.080 11.6-24.66v-32.6zM457.82 478.84l90-27c10.32-3.1 17.54-13.56 17.54-25.46 0-14.54-10.6-26.38-23.6-26.38h-56.22c-9.12 0-17.92 2.58-25.64 7.44-6.48 4.060-14.72 3.82-20.26-1.46l-23.5-22.42c-7.060-6.74-6.66-18.42 1.14-24.28 18.2-13.66 40.16-21.54 62.74-22.7v-32.58c0-8.84 7.16-16 16-16h32c8.84 0 16 7.16 16 16v32.24c47.24 1.26 85.34 41.080 85.34 90.14 0 39.94-25.96 75.62-63.16 86.78l-90 27c-10.32 3.1-17.54 13.56-17.54 25.46 0 14.54 10.6 26.38 23.6 26.38h56.22c9.12 0 17.92-2.58 25.64-7.44 6.48-4.060 14.72-3.82 20.26 1.46l23.5 22.42c7.060 6.74 6.66 18.42-1.14 24.28-18.2 13.66-40.16 21.54-62.74 22.7v32.58c0 8.84-7.16 16-16 16h-32c-8.84 0-16-7.16-16-16v-32.24c-47.24-1.26-85.34-41.1-85.34-90.14 0-39.94 25.96-75.62 63.16-86.78z" />
<glyph unicode="&#xe905;" glyph-name="envelope-open-text" d="M704 464v32c0 8.84-7.16 16-16 16h-352c-8.84 0-16-7.16-16-16v-32c0-8.84 7.16-16 16-16h352c8.84 0 16 7.16 16 16zM336 576h352c8.84 0 16 7.16 16 16v32c0 8.84-7.16 16-16 16h-352c-8.84 0-16-7.16-16-16v-32c0-8.84 7.16-16 16-16zM989.18 630.96c-3.96 3.26-44.38 35.82-93.18 75.060v61.98c0 35.34-28.66 64-64 64h-92.94c-8.26 6.62-15.42 12.32-20.4 16.28-44.2 35.34-119.78 111.72-206.66 111.72-86.42 0-161.28-75.44-206.68-111.72-5.060-4.020-12.2-9.74-20.4-16.28h-92.92c-35.34 0-64-28.66-64-64v-61.96c-49.040-39.42-89.5-72.020-92.96-74.86-21.459-17.734-35.033-44.351-35.040-74.139v-525.041c0-53.020 42.98-96 96-96h832c53.020 0 96 42.98 96 96v524.98c0 28.62-12.76 55.76-34.82 73.98zM512 896c43.54 0 89.28-33.44 126.28-64h-252.48c37.060 30.54 82.84 64 126.2 64zM192 768h640v-346.7c-64.66-52-130.6-104.88-173.18-138.68-33.7-26.86-100.38-91.36-146.82-90.62-46.42-0.76-113.12 63.76-146.82 90.64-42.58 33.8-108.48 86.66-173.18 138.68v346.68zM64 557.040c0 9.6 4.26 18.62 11.68 24.72 2.48 2.040 23.24 18.76 52.32 42.16v-151.1c-23.060 18.56-45.020 36.26-64 51.56v32.66zM960 32c0-17.64-14.36-32-32-32h-832c-17.64 0-32 14.36-32 32v410.18c85.5-68.88 198.62-159.84 261.36-209.64 40.98-32.72 113.48-105.060 186.64-104.52 72.9-0.52 144.54 70.92 186.62 104.52 62.82 49.86 175.86 140.78 261.38 209.66v-410.2zM960 524.38c-19.24-15.5-40.54-32.68-64-51.58v151.080c28.88-23.24 49.6-39.94 52.4-42.24 7.38-6.1 11.6-15.080 11.6-24.66v-32.6z" />
<glyph unicode="&#xe906;" glyph-name="envelope-open" d="M698.64 855.48c-42.084 33.53-112.764 104.52-186.64 104.52-73.33 0-142.892-69.538-186.62-104.52-69.172-54.91-219.050-175.796-290.194-234.030-21.55-17.736-35.186-44.411-35.186-74.271 0-0.004 0-0.007 0-0.011v0.001-515.168c0-53.020 42.98-96 96-96h832c53.020 0 96 42.98 96 96v515.174c0 0.003 0 0.007 0 0.011 0 29.864-13.639 56.542-35.028 74.145l-0.166 0.132c-71.142 58.224-220.994 179.108-290.166 234.018zM928 0h-832c-17.674 0-32 14.326-32 32v515.678c0 9.612 4.31 18.706 11.756 24.784 52.564 42.908 243.56 196.486 289.424 232.898 35.242 28.1 99.454 90.64 146.82 90.64 47.372 0 111.578-62.54 146.82-90.64 45.864-36.414 236.872-190.016 289.428-232.936 7.197-5.91 11.752-14.808 11.752-24.77 0-0.004 0-0.007 0-0.011v0.001-515.644c0-17.674-14.326-32-32-32zM910.494 432.624c8.378-10.312 6.786-25.464-3.552-33.81-45.654-36.852-110.27-88.472-208.312-166.296-42.090-33.6-113.742-105.036-186.636-104.516-73.16-0.528-145.652 71.816-186.636 104.526-98.030 77.816-162.642 129.432-208.298 166.286-10.338 8.346-11.932 23.498-3.552 33.81l10.094 12.424c8.338 10.262 23.408 11.85 33.696 3.544 45.526-36.752 110.028-88.286 207.876-165.956 33.7-26.874 100.402-91.38 146.826-90.63 46.438-0.742 113.124 63.754 146.826 90.63 97.858 77.678 162.356 129.21 207.876 165.956 10.29 8.306 25.358 6.718 33.696-3.544l10.096-12.424z" />
<glyph unicode="&#xe907;" glyph-name="envelope" d="M928 832h-832c-53 0-96-43-96-96v-576c0-53 43-96 96-96h832c53 0 96 43 96 96v576c0 53-43 96-96 96zM96 768h832c17.6 0 32-14.4 32-32v-82.8c-43.8-37-106.4-88-301.2-242.6-33.8-26.8-100.4-91.4-146.8-90.6-46.4-0.8-113.2 63.8-146.8 90.6-194.8 154.6-257.4 205.6-301.2 242.6v82.8c0 17.6 14.4 32 32 32zM928 128h-832c-17.6 0-32 14.4-32 32v410c45.6-37.4 117.6-95.2 261.4-209.4 41-32.8 113.4-105 186.6-104.6 72.8-0.6 144.6 71 186.6 104.6 143.8 114.2 215.8 172 261.4 209.4v-410c0-17.6-14.4-32-32-32z" />
<glyph unicode="&#xe908;" glyph-name="female" horiz-adv-x="512" d="M509.296 278.218l-79.818 328.552c-5.203 21.624-17.128 39.914-33.402 53.021l-0.186 0.145c-2.65 2.129-5.622 4.243-8.713 6.184l-0.395 0.232c28.094 31.198 45.218 72.46 45.218 117.648 0 97.046-78.954 176-176 176s-176-78.954-176-176c0-45.188 17.124-86.45 45.218-117.648-3.486-2.172-6.457-4.287-9.295-6.561l0.187 0.145c-16.46-13.252-28.385-31.542-33.454-52.508l-0.134-0.658-79.818-328.552c-14.44-59.336 30.728-118.218 93.39-118.218h25.906v-118c0-58.448 47.552-106 106-106h56c58.448 0 106 47.552 106 106v118h25.904c62.658 0 107.834 58.872 93.392 118.218zM256 896c61.856 0 112-50.144 112-112s-50.144-112-112-112-112 50.144-112 112 50.144 112 112 112zM416 224h-90v-182c0-23.196-18.804-42-42-42h-56c-23.196 0-42 18.804-42 42v182h-90c-20.518 0-35.754 19.078-31.204 39.092l80 328.908c3.349 14.368 16.045 24.908 31.204 24.908h24.702c16.505-5.65 35.521-8.912 55.299-8.912s38.794 3.262 56.54 9.277l-1.241-0.365h24.7c15.159 0 27.855-10.54 31.161-24.692l0.043-0.216 80-328.908c4.548-20.008-10.68-39.092-31.204-39.092z" />
<glyph unicode="&#xe909;" glyph-name="male" horiz-adv-x="512" d="M397.492 679.452c21.672 29.254 34.508 65.428 34.508 104.548 0 97.046-78.954 176-176 176s-176-78.954-176-176c0-39.12 12.836-75.294 34.508-104.548-57.338-20.408-98.508-75.198-98.508-139.452v-210c0-49.48 34.082-91.152 80-102.774v-185.226c0-58.448 47.552-106 106-106h108c58.448 0 106 47.552 106 106v185.226c45.918 11.624 80 53.294 80 102.774v210c0 64.254-41.17 119.044-98.508 139.452zM256 896c61.856 0 112-50.144 112-112s-50.144-112-112-112-112 50.144-112 112 50.144 112 112 112zM432 330c0-23.196-18.804-42-42-42h-38v-246c0-23.196-18.804-42-42-42h-108c-23.196 0-42 18.804-42 42v246h-38c-23.196 0-42 18.804-42 42v210c0 46.392 37.608 84 84 84h18.72c45.422-20.886 99.18-21.788 146.56 0h18.72c46.392 0 84-37.608 84-84v-210z" />
<glyph unicode="&#xe90a;" glyph-name="user-alt" d="M512 896c123.6 0 224-100.4 224-224s-100.4-224-224-224-224 100.4-224 224 100.4 224 224 224zM768 256c105.8 0 192-86.2 192-192v-64h-896v64c0 105.8 86.2 192 192 192 170 0 134.6-32 256-32 121.8 0 85.8 32 256 32zM512 960c-159 0-288-129-288-288s129-288 288-288 288 129 288 288-129 288-288 288zM768 320c-184.8 0-142-32-256-32-113.6 0-71.4 32-256 32-141.4 0-256-114.6-256-256v-64c0-35.4 28.6-64 64-64h896c35.4 0 64 28.6 64 64v64c0 141.4-114.6 256-256 256z" />
<glyph unicode="&#xe90b;" glyph-name="user-secret" horiz-adv-x="896" d="M767.8 343.4l47.8 125.2c8 21-7.4 43.4-30 43.4h-86.4c3 15.6 4.8 31.6 4.8 48 0 14.4-1.8 28.4-4.4 42.2 81 19.6 132.4 48.4 132.4 80.4 0 33-54 62.4-138.6 82-17.8 67.2-54.8 135.8-82.6 170.8-12.6 16-31.4 24.6-50.6 24.6-19 0-24.6-4.8-83.6-34.4-25.6-12.8-48.6-4.2-57.2 0-59.6 29.8-64.8 34.4-83.6 34.4-19.2 0-37.8-8.6-50.4-24.4-27.8-35-64.8-103.6-82.6-170.8-84.8-19.6-138.8-49.2-138.8-82.2 0-32.2 51.4-61 132.4-80.4-2.6-13.8-4.4-27.8-4.4-42.2 0-16.4 1.8-32.4 4.8-48h-84.2c-23 0-38.4-23.4-29.4-44.6l51.6-120.4c-80.2-46.6-134.8-132.4-134.8-231.8v-89.6c0-49.4 40.2-89.6 89.6-89.6h716.8c49.4 0 89.6 40.2 89.6 89.6v89.6c0 96.8-51.6 180.8-128.2 228.2zM256 560c0 5.4 0.6 10.6 1.2 15.8 2.6-1.6 10.2-6.6 11.6-10.8 7.8-23.8 14-49.2 33-66.8 16-14.8 94-50.2 128 50 5.6 16.8 30.8 16.8 36.6 0 32-94.8 107.8-68.8 128-50 19 17.6 25.4 43 33 66.8 1.4 4.2 8.8 9.2 11.6 10.8 0.6-5.2 1.2-10.4 1.2-15.8 0-105.8-86.2-192-192-192s-192.2 86.2-192.2 192zM254.6 711c1.4 5.4 24.6 114 81 185 57.4-28.8 75.4-41 112.4-41 37.2 0 55.4 12.6 112.4 41l0.2-0.2c56.2-70.8 79.4-179.2 80.8-184.8 42.8-9.8 71.6-15.8 102-28.4-48.6-19.8-150.8-42.6-295.4-42.6s-246.8 22.8-295.4 42.6c30.4 12.6 59.8 18.6 102 28.4zM89.6 0c-14.2 0-25.6 11.4-25.6 25.6v89.6c0 73 38.4 139 102.8 176.4l49.2 28.4-54.8 128h57.8c9.4-19.2 128.6-217 128.6-217l-61.8-231h-196.2zM352 0l64 240-43.8 76.8c24.2-7.6 49.2-12.8 75.8-12.8s51.8 5.2 75.8 12.8l-43.8-76.8 64-240h-192zM832 25.6c0-14.2-11.4-25.6-25.6-25.6h-196.2l-61.6 231s119.2 197.8 128.6 217h62l-50-131.2 45-27.8c61.2-37.8 97.8-102.8 97.8-173.8v-89.6z" />
<glyph unicode="&#xe90c;" glyph-name="chevron-circle-down" d="M512 944c-274 0-496-222-496-496s222-496 496-496 496 222 496 496-222 496-496 496zM944 448c0-237.4-192.2-432-432-432-237.4 0-432 192.2-432 432 0 237.4 192.2 432 432 432 237.4 0 432-192.2 432-432zM529 274.8l230 230.2c9.4 9.4 9.4 24.6 0 34l-14.2 14.2c-9.4 9.4-24.6 9.4-34 0l-198.8-199.2-199 199c-9.4 9.4-24.6 9.4-34 0l-14.2-14.2c-9.4-9.4-9.4-24.6 0-34l230-230.2c9.6-9.2 24.8-9.2 34.2 0.2z" />
<glyph unicode="&#xe90d;" glyph-name="chevron-circle-left" d="M1008 448c0 274-222 496-496 496s-496-222-496-496 222-496 496-496 496 222 496 496zM512 16c-237.4 0-432 192.2-432 432 0 237.4 192.2 432 432 432 237.4 0 432-192.2 432-432 0-237.4-192.2-432-432-432zM338.8 465l230.2 230c9.4 9.4 24.6 9.4 34 0l14.2-14.2c9.4-9.4 9.4-24.6 0-34l-199.2-198.8 199-199c9.4-9.4 9.4-24.6 0-34l-14.2-14.2c-9.4-9.4-24.6-9.4-34 0l-230.2 230c-9.2 9.6-9.2 24.8 0.2 34.2z" />
<glyph unicode="&#xe90e;" glyph-name="chevron-circle-right" d="M16 448c0-274 222-496 496-496s496 222 496 496-222 496-496 496-496-222-496-496zM512 880c237.4 0 432-192.2 432-432 0-237.4-192.2-432-432-432-237.4 0-432 192.2-432 432 0 237.4 192.2 432 432 432zM685.2 431l-230.2-230c-9.4-9.4-24.6-9.4-34 0l-14.2 14.2c-9.4 9.4-9.4 24.6 0 34l199.2 198.8-199 199c-9.4 9.4-9.4 24.6 0 34l14.2 14.2c9.4 9.4 24.6 9.4 34 0l230.2-230c9.2-9.6 9.2-24.8-0.2-34.2z" />
<glyph unicode="&#xe90f;" glyph-name="chevron-circle-up" d="M512-48c274 0 496 222 496 496s-222 496-496 496-496-222-496-496 222-496 496-496zM80 448c0 237.4 192.2 432 432 432 237.4 0 432-192.2 432-432 0-237.4-192.2-432-432-432-237.4 0-432 192.2-432 432zM529 621.2l230-230.2c9.4-9.4 9.4-24.6 0-34l-14.2-14.2c-9.4-9.4-24.6-9.4-34 0l-198.8 199.2-199-199c-9.4-9.4-24.6-9.4-34 0l-14.2 14.2c-9.4 9.4-9.4 24.6 0 34l230 230.2c9.6 9.2 24.8 9.2 34.2-0.2z" />
<glyph unicode="&#xe910;" glyph-name="chevron-double-down" horiz-adv-x="896" d="M887 763l-422-422.2c-9.4-9.4-24.6-9.4-34 0l-422 422.2c-9.4 9.4-9.4 24.6 0 34l14.2 14.2c9.4 9.4 24.6 9.4 34 0l390.8-391 391 390.8c9.4 9.4 24.6 9.4 34 0l14.2-14.2c9.2-9.2 9.2-24.4-0.2-33.8zM887 541l-14.2 14.2c-9.4 9.4-24.6 9.4-34 0l-390.8-391-391 390.8c-9.4 9.4-24.6 9.4-34 0l-14.2-14.2c-9.4-9.4-9.4-24.6 0-34l422-422.2c9.4-9.4 24.6-9.4 34 0l422 422.2c9.6 9.6 9.6 24.8 0.2 34.2z" />
<glyph unicode="&#xe911;" glyph-name="chevron-double-left" horiz-adv-x="768" d="M699 9l-422.2 422c-9.4 9.4-9.4 24.6 0 34l422.2 422c9.4 9.4 24.6 9.4 34 0l14.2-14.2c9.4-9.4 9.4-24.6 0-34l-391-390.8 391-391c9.4-9.4 9.4-24.6 0-34l-14.2-14.2c-9.4-9.2-24.6-9.2-34 0.2zM477 9l14.2 14.2c9.4 9.4 9.4 24.6 0 34l-391 390.8 390.8 391c9.4 9.4 9.4 24.6 0 34l-14.2 14.2c-9.4 9.4-24.6 9.4-34 0l-422.2-422c-9.4-9.4-9.4-24.6 0-34l422.2-422c9.6-9.6 24.8-9.6 34.2-0.2z" />
<glyph unicode="&#xe912;" glyph-name="chevron-double-right" horiz-adv-x="768" d="M69 887l422.2-422c9.4-9.4 9.4-24.6 0-34l-422.2-422c-9.4-9.4-24.6-9.4-34 0l-14.2 14.2c-9.4 9.4-9.4 24.6 0 34l391 390.8-390.8 391c-9.4 9.4-9.4 24.6 0 34l14.2 14.2c9.2 9.2 24.4 9.2 33.8-0.2zM291 887l-14.2-14.2c-9.4-9.4-9.4-24.6 0-34l391-390.8-390.8-391c-9.4-9.4-9.4-24.6 0-34l14.2-14.2c9.4-9.4 24.6-9.4 34 0l422.2 422c9.4 9.4 9.4 24.6 0 34l-422.2 422c-9.6 9.6-24.8 9.6-34.2 0.2z" />
<glyph unicode="&#xe913;" glyph-name="chevron-double-up" horiz-adv-x="896" d="M9 133l422 422.2c9.4 9.4 24.6 9.4 34 0l422-422.2c9.4-9.4 9.4-24.6 0-34l-14.2-14.2c-9.4-9.4-24.6-9.4-34 0l-390.8 391-391-390.8c-9.4-9.4-24.6-9.4-34 0l-14.2 14.2c-9.2 9.2-9.2 24.4 0.2 33.8zM9 355l14.2-14.2c9.4-9.4 24.6-9.4 34 0l390.8 391 391-391c9.4-9.4 24.6-9.4 34 0l14.2 14.2c9.4 9.4 9.4 24.6 0 34l-422 422.2c-9.4 9.4-24.6 9.4-34 0l-422.2-422.2c-9.4-9.4-9.4-24.6 0-34z" />
<glyph unicode="&#xe914;" glyph-name="chevron-down" horiz-adv-x="896" d="M887 634.8l-14.2 14.2c-9.4 9.4-24.6 9.4-34 0l-390.8-391-391 391c-9.4 9.4-24.6 9.4-34 0l-14.2-14.2c-9.4-9.4-9.4-24.6 0-34l422-422.2c9.4-9.4 24.6-9.4 34 0l422 422.2c9.6 9.4 9.6 24.6 0.2 34z" />
<glyph unicode="&#xe915;" glyph-name="chevron-left" horiz-adv-x="512" d="M476.95 8.93l14.142 14.14c9.372 9.372 9.372 24.568 0 33.942l-390.986 390.988 390.986 390.988c9.372 9.372 9.372 24.568 0 33.942l-14.142 14.14c-9.372 9.372-24.568 9.372-33.94 0l-422.102-422.1c-9.372-9.372-9.372-24.568 0-33.942l422.102-422.1c9.372-9.372 24.568-9.372 33.94 0.002z" />
<glyph unicode="&#xe916;" glyph-name="chevron-right" horiz-adv-x="512" d="M35.050 887.070l-14.142-14.14c-9.372-9.372-9.372-24.568 0-33.942l390.986-390.988-390.986-390.988c-9.372-9.372-9.372-24.568 0-33.942l14.142-14.14c9.372-9.372 24.568-9.372 33.94 0l422.102 422.1c9.372 9.372 9.372 24.568 0 33.942l-422.102 422.098c-9.372 9.374-24.568 9.374-33.94 0z" />
<glyph unicode="&#xe917;" glyph-name="chevron-square-down" horiz-adv-x="896" d="M800 896h-704c-53 0-96-43-96-96v-704c0-53 43-96 96-96h704c53 0 96 43 96 96v704c0 53-43 96-96 96zM832 96c0-17.6-14.4-32-32-32h-704c-17.6 0-32 14.4-32 32v704c0 17.6 14.4 32 32 32h704c17.6 0 32-14.4 32-32v-704zM431 288.8l-230 230.2c-9.4 9.4-9.4 24.6 0 34l14.2 14.2c9.4 9.4 24.6 9.4 34 0l198.8-199.2 199 199c9.4 9.4 24.6 9.4 34 0l14.2-14.2c9.4-9.4 9.4-24.6 0-34l-230-230.2c-9.6-9-24.8-9-34.2 0.2z" />
<glyph unicode="&#xe918;" glyph-name="chevron-square-left" horiz-adv-x="896" d="M896 96v704c0 53-43 96-96 96h-704c-53 0-96-43-96-96v-704c0-53 43-96 96-96h704c53 0 96 43 96 96zM96 64c-17.6 0-32 14.4-32 32v704c0 17.6 14.4 32 32 32h704c17.6 0 32-14.4 32-32v-704c0-17.6-14.4-32-32-32h-704zM288.8 465l230.2 230c9.4 9.4 24.6 9.4 34 0l14.2-14.2c9.4-9.4 9.4-24.6 0-34l-199.2-198.8 199-199c9.4-9.4 9.4-24.6 0-34l-14.2-14.2c-9.4-9.4-24.6-9.4-34 0l-230.2 230c-9 9.6-9 24.8 0.2 34.2z" />
<glyph unicode="&#xe919;" glyph-name="chevron-square-right" horiz-adv-x="896" d="M0 800v-704c0-53 43-96 96-96h704c53 0 96 43 96 96v704c0 53-43 96-96 96h-704c-53 0-96-43-96-96zM800 832c17.6 0 32-14.4 32-32v-704c0-17.6-14.4-32-32-32h-704c-17.6 0-32 14.4-32 32v704c0 17.6 14.4 32 32 32h704zM607.2 431l-230.2-230c-9.4-9.4-24.6-9.4-34 0l-14.2 14.2c-9.4 9.4-9.4 24.6 0 34l199.2 198.8-199 199c-9.4 9.4-9.4 24.6 0 34l14.2 14.2c9.4 9.4 24.6 9.4 34 0l230.2-230c9-9.6 9-24.8-0.2-34.2z" />
<glyph unicode="&#xe91a;" glyph-name="chevron-square-up" horiz-adv-x="896" d="M96 0h704c53 0 96 43 96 96v704c0 53-43 96-96 96h-704c-53 0-96-43-96-96v-704c0-53 43-96 96-96zM64 800c0 17.6 14.4 32 32 32h704c17.6 0 32-14.4 32-32v-704c0-17.6-14.4-32-32-32h-704c-17.6 0-32 14.4-32 32v704zM465 607.2l230-230.2c9.4-9.4 9.4-24.6 0-34l-14.2-14.2c-9.4-9.4-24.6-9.4-34 0l-198.8 199.2-199-199c-9.4-9.4-24.6-9.4-34 0l-14.2 14.2c-9.4 9.4-9.4 24.6 0 34l230 230.2c9.6 9 24.8 9 34.2-0.2z" />
<glyph unicode="&#xe91b;" glyph-name="chevron-up" horiz-adv-x="896" d="M8.93 227.050l14.14-14.142c9.372-9.372 24.568-9.372 33.942 0l390.988 390.986 390.988-390.986c9.372-9.372 24.568-9.372 33.942 0l14.14 14.142c9.372 9.372 9.372 24.568 0 33.94l-422.1 422.102c-9.372 9.372-24.568 9.372-33.942 0l-422.098-422.102c-9.374-9.372-9.374-24.568 0-33.94z" />
<glyph unicode="&#xe91c;" glyph-name="raindrops" horiz-adv-x="896" d="M813.2 454.6c-36.8 51.4-78.4 110-105.2 198.8-8.6 30-35.6 50.2-67.2 50.6-28.8 0.6-59.2-20-68.4-50.4-26.8-88.6-68.4-147.2-105.2-199-42.6-60-83-116.8-83-200 0-140.4 114.8-254.6 256-254.6s256 114.2 256 254.6c-0.2 83.6-40.4 140.2-83 200zM640 64c-105.8 0-192 85.4-192 190.6 0 62.8 31.4 107 71.2 163 37.6 53 84.4 118.8 114.2 217.4 0.4 1.6 1.6 5 6.4 5 2.6-1 5.6-1.4 6.4-4.2l0.2-0.6c30-99 76.8-164.8 114.4-217.6 41.2-57.8 71-99.6 71-162.8 0.2-105.4-86-190.8-191.8-190.8zM480 676.2c0 42.8-19.6 71.6-38.4 99.6-15.8 23.2-32 47.2-42.8 84.4-5.8 21.2-24.4 35.6-46.2 35.8-24.8 0.2-41-14-47.2-35.6-10.6-37.2-27-61.4-42.8-84.6-19-28-38.6-57-38.6-99.6 0-72.8 57.4-132.2 128-132.2s128 59.4 128 132.2zM352 608c-35.4 0-64 30.6-64 68.2 0 22 9.4 37 27.6 63.8 11.4 17 24.8 36.6 36.4 62.4 11.6-25.8 25-45.6 36.6-62.4 18-26.6 27.4-41.4 27.4-63.6 0-37.8-28.6-68.4-64-68.4zM174.8 508.2c-5.8 21.2-24.4 35.6-46.2 35.8-20.2-2.4-41-14-47.2-35.6-10.6-37.2-27-61.4-42.8-84.6-19-28-38.6-57-38.6-99.6 0-72.8 57.4-132.2 128-132.2s128 59.4 128 132.2c0 42.8-19.6 71.6-38.4 99.6-15.8 23.2-32 47.2-42.8 84.4zM128 256c-35.4 0-64 30.6-64 68.2 0 22 9.4 37 27.6 63.8 11.4 17 24.8 36.6 36.4 62.4 11.6-25.8 25-45.6 36.6-62.4 18-26.6 27.4-41.4 27.4-63.6 0-37.8-28.6-68.4-64-68.4z" />
<glyph unicode="&#xe91d;" glyph-name="sunset" horiz-adv-x="1152" d="M553.4 521.4c6.2-6.2 14.4-9.4 22.6-9.4s16.4 3.2 22.6 9.4l180.6 180.6c6.2 6.2 6.2 16.4 0 22.6l-22.6 22.6c-6.2 6.2-16.4 6.2-22.6 0l-126-126v322.8c0 8.8-7.2 16-16 16h-32c-8.8 0-16-7.2-16-16v-322.8l-126 126c-6.2 6.2-16.4 6.2-22.6 0l-22.6-22.6c-6.2-6.2-6.2-16.4 0-22.6l180.6-180.6zM191.6 64h77l-88 132 172 34.4c12.6 2.6 22.6 12.4 25.2 25.2l34.4 172 146-97.4c10.8-7.2 24.8-7.2 35.6 0l146 97.4 34.4-172c2.4-12.6 12.4-22.6 25.2-25.2l172-34.4-88-132h77l91 136.2c6 8.8 7 20.2 3 30s-12.8 17-23.4 19.2l-198 39.6-39.6 198c-2 10.4-9.2 19.2-19.2 23.4s-21.2 3-30-3l-168-112-168 112c-8.8 5.8-20.2 7-30 3s-17-12.8-19.2-23.4l-39.6-198-198-39.6c-10.4-2-19.2-9.2-23.4-19.2s-3-21.2 3-30l90.6-136.2zM575.6 256c-112.6 0-205-83.8-220.8-192h64c14.8 73 79.4 128 156.8 128s141.8-55 156.8-128h64c-15.6 108.2-108.2 192-220.8 192zM1136 0h-1120c-8.8 0-16-7.2-16-16v-32c0-8.8 7.2-16 16-16h1120c8.8 0 16 7.2 16 16v32c0 8.8-7.2 16-16 16z" />
<glyph unicode="&#xe91e;" glyph-name="sunrise" horiz-adv-x="1152" d="M191.6 64h77l-88 132 172 34.4c12.6 2.6 22.6 12.4 25.2 25.2l34.4 172 146-97.4c10.8-7.2 24.8-7.2 35.6 0l146 97.4 34.4-172c2.4-12.6 12.4-22.6 25.2-25.2l172-34.4-88-132h77l91 136.2c6 8.8 7 20.2 3 30s-12.8 17-23.4 19.2l-198 39.6-39.6 198c-2 10.4-9.2 19.2-19.2 23.4s-21.2 3-30-3l-168-112-168 112c-8.8 5.8-20.2 7-30 3s-17-12.8-19.2-23.4l-39.6-198-198-39.6c-10.4-2-19.2-9.2-23.4-19.2s-3-21.2 3-30l90.6-136.2zM395.4 724.6c6.2-6.2 16.4-6.2 22.6 0l126 126v-322.6c0-8.8 7.2-16 16-16h32c8.8 0 16 7.2 16 16v322.8l126-126c6.2-6.2 16.4-6.2 22.6 0l22.6 22.6c6.2 6.2 6.2 16.4 0 22.6l-180.6 180.6c-6.2 6.2-14.4 9.4-22.6 9.4s-16.4-3.2-22.6-9.4l-180.8-180.6c-6.2-6.2-6.2-16.4 0-22.6l22.8-22.8zM1136 0h-1120c-8.8 0-16-7.2-16-16v-32c0-8.8 7.2-16 16-16h1120c8.8 0 16 7.2 16 16v32c0 8.8-7.2 16-16 16zM575.6 256c-112.6 0-205-83.8-220.8-192h64c14.8 73 79.4 128 156.8 128s141.8-55 156.8-128h64c-15.6 108.2-108.2 192-220.8 192z" />
<glyph unicode="&#xe91f;" glyph-name="cloud-hail-mixed" d="M831.4 735.4c-7.8 89.8-83.6 160.6-175.4 160.6-35.6 0-69.6-10.6-98.4-30.4-45 59-114.6 94.4-189.6 94.4-132.4 0-240-107.6-240-240v-0.8c-76.6-32-128-107-128-191.2 0-114.6 93.4-208 208-208h608c114.6 0 208 93.4 208 208 0 109.6-85.2 199.6-192.6 207.4zM816 384h-608c-79.4 0-144 64.6-144 144 0 64.6 43.8 121.4 106.6 138.4l26.6 7.2-4 34.4c-0.6 4-1.2 8-1.2 12 0 97 79 176 176 176 64.4 0 123.6-35.8 154.4-93.6l21.2-39.6 30.4 33c21.8 23.4 50.8 36.2 82 36.2 61.8 0 112-50.2 112-112 0-3.2-0.6-6.2-1.6-13.8l-5-40 47 4.8c2.4 0.4 5 0.8 7.6 0.8 79.4 0 144-64.6 144-144s-64.6-143.8-144-143.8zM367.8 219.8c-15.2 8.8-34.8 3.6-43.6-12l-128-224c-8.8-15.4-3.4-35 12-43.6 5-2.8 10.4-4.2 15.8-4.2 11 0 21.8 5.8 27.8 16.2l128 224c8.8 15.2 3.4 34.8-12 43.6zM432 32c-26.6 0-48-21.4-48-48s21.4-48 48-48 48 21.4 48 48-21.4 48-48 48zM174.4 220.6c-15.8 7.8-35 1.6-43-14.4l-32-64c-7.8-15.8-1.6-35 14.4-43 4.6-2.2 9.6-3.4 14.4-3.4 11.6 0 23 6.4 28.6 17.6l32 64c7.6 16.2 1.4 35.4-14.4 43.2zM48 32c-26.6 0-48-21.4-48-48s21.4-48 48-48 48 21.4 48 48-21.4 48-48 48zM942.4 220.6c-15.8 7.8-35 1.6-43-14.4l-32-64c-7.8-15.8-1.6-35 14.4-43 4.6-2.2 9.6-3.4 14.4-3.4 11.6 0 23 6.4 28.6 17.6l32 64c7.6 16.2 1.4 35.4-14.4 43.2zM558.4 220.6c-15.8 7.8-35 1.6-43-14.4l-32-64c-7.8-15.8-1.6-35 14.4-43 4.6-2.2 9.6-3.4 14.4-3.4 11.6 0 23 6.4 28.6 17.6l32 64c7.6 16.2 1.4 35.4-14.4 43.2zM816 32c-26.6 0-48-21.4-48-48s21.4-48 48-48 48 21.4 48 48-21.4 48-48 48zM751.8 219.8c-15.2 8.8-34.8 3.6-43.6-12l-128-224c-8.8-15.4-3.4-35 12-43.6 5-2.8 10.4-4.2 15.8-4.2 11 0 21.8 5.8 27.8 16.2l128 224c8.8 15.2 3.4 34.8-12 43.6z" />
<glyph unicode="&#xe920;" glyph-name="cloud-drizzle" d="M96 240c-17.6 0-32-14.4-32-32v-80c0-17.6 14.4-32 32-32s32 14.4 32 32v80c0 17.6-14.4 32-32 32zM288 80c-17.6 0-32-14.4-32-32v-80c0-17.6 14.4-32 32-32s32 14.4 32 32v80c0 17.6-14.4 32-32 32zM480 240c-17.6 0-32-14.4-32-32v-80c0-17.6 14.4-32 32-32s32 14.4 32 32v80c0 17.6-14.4 32-32 32zM672 80c-17.6 0-32-14.4-32-32v-80c0-17.6 14.4-32 32-32s32 14.4 32 32v80c0 17.6-14.4 32-32 32zM864 240c-17.6 0-32-14.4-32-32v-80c0-17.6 14.4-32 32-32s32 14.4 32 32v80c0 17.6-14.4 32-32 32zM831.4 735.4c-7.8 89.8-83.6 160.6-175.4 160.6-35.6 0-69.6-10.6-98.4-30.4-45 59-114.6 94.4-189.6 94.4-132.4 0-240-107.6-240-240v-0.8c-76.6-32-128-107-128-191.2 0-114.6 93.4-208 208-208h608c114.6 0 208 93.4 208 208 0 109.6-85.2 199.6-192.6 207.4zM816 384h-608c-79.4 0-144 64.6-144 144 0 64.6 43.8 121.4 106.6 138.4l26.6 7.2-4 34.4c-0.6 4-1.2 8-1.2 12 0 97 79 176 176 176 64.4 0 123.6-35.8 154.4-93.6l21.2-39.6 30.4 33c21.8 23.4 50.8 36.2 82 36.2 61.8 0 112-50.2 112-112 0-3.2-0.6-6.2-1.6-13.8l-5-40 47 4.8c2.4 0.4 5 0.8 7.6 0.8 79.4 0 144-64.6 144-144s-64.6-143.8-144-143.8z" />
<glyph unicode="&#xe921;" glyph-name="cloud-moon" horiz-adv-x="1280" d="M703 332.8c-9 82.6-79.2 147.2-164.2 147.2-27.8 0-54.6-7-79-20.6-36.6 33.6-83.8 52.6-133.6 52.6-107.4 0-195-85.6-198.4-192.4-76.6-28.6-128-101.4-128-185.4 0.2-109.2 89.2-198.2 198.6-198.2h499.2c109.4 0 198.4 89 198.4 198.4 0 107.6-86 195.4-193 198.4zM697.6 0h-499.2c-74.2 0-134.4 60.2-134.4 134.4 0 63.2 43 117 104.8 130.8l28 11.8-4 29.2c-0.4 2.4-0.8 5-0.8 7.6 0 74.2 60.2 134.4 134.4 134.4 40.2 0 78-18.4 104-50.4l20.2-25 24.8 20.2c18.6 15 40.6 23 63.4 23 55.8 0 101.2-45.4 101.2-101.2 0-3-0.4-5.6-1.4-12.8l-5.2-42.6 42.4 7.2c7.2 1.2 14.4 2.4 22 2.4 74.2 0 134.4-60.4 134.4-134.4s-60.4-134.6-134.6-134.6zM1275.2 385.6c-8.2 17.2-24.8 27.8-43.6 27.8-3 0-6-0.2-9.2-0.8-15.4-3-31-4.4-46.4-4.4-134 0-243 109.4-243 243.8 0 87.4 47.2 168.6 123.2 212 17.8 10.2 27.2 30 23.8 50.2-3.4 20.4-18.8 35.8-39 39.6-23 4-46.4 6.2-70 6.2-211.4 0-383.6-172.2-383.6-384 0-13 0.8-25.6 2.2-38.4 25.4-5.8 49.2-15.6 70.8-29.2-5.2 21.8-9 44-9 67.4 0 176.4 143.4 320 319.6 320 6 0 11.8-0.2 17.8-0.4-74.8-57.8-119.8-147.8-119.8-243.8 0-169.6 137.8-307.6 307-307.6 5.2 0 10.4 0.2 15.6 0.4-59.2-56.6-137.6-88.4-220.6-88.4-15 0-29.6 1.4-43.8 3.8 11.4-20.6 19.4-43 25-66.2 6.2-0.4 12.4-1.4 18.8-1.4 116.2 0 224.8 51.8 298 142.2 12 14.4 14.4 34.2 6.2 51.2z" />
<glyph unicode="&#xe922;" glyph-name="cloud-meatball" d="M96 256c-53 0-96-43-96-96s43-96 96-96 96 43 96 96-43 96-96 96zM96 128c-17.6 0-32 14.4-32 32s14.4 32 32 32 32-14.4 32-32-14.4-32-32-32zM928 256c-53 0-96-43-96-96s43-96 96-96 96 43 96 96-43 96-96 96zM928 128c-17.6 0-32 14.4-32 32s14.4 32 32 32 32-14.4 32-32-14.4-32-32-32zM693 373c-24.4 24.4-58.6 35.8-92.6 32.6-43.6 53.2-133.4 53.2-176.8 0-33.8 3.2-68-8.2-92.6-32.6-24.4-24.4-36-58.4-32.6-92.6-26.6-21.8-42.4-54-42.4-88.4s15.8-66.6 42.4-88.4c-3.4-34.2 8.2-68.2 32.6-92.6 24.6-24.6 61-38 93-33.2 21.8-26.2 53.6-41.8 88-41.8s66.2 15.6 88 41.8c32.4-4.8 68.4 8.6 93 33.2 24.4 24.4 36 58.4 32.6 92.6 26.6 21.8 42.4 54 42.4 88.4s-15.8 66.6-42.4 88.4c3.4 34.2-8.2 68.2-32.6 92.6zM675.4 146.6l-23.8-12.4 8.2-25.6c6-19 1.6-39-11.8-52.4-9.8-9.8-22.8-15.2-36.8-15.2-4 0-9 1.4-15.6 3.4l-25.6 8.2-12.4-24c-18.4-35.4-72.4-35.4-90.8 0l-12.4 24-25.6-8.2c-6.4-2-11.6-3.4-15.6-3.4-13.8 0-27 5.4-36.8 15.2-13.4 13.4-17.8 33.4-11.8 52.4l8.2 25.6-23.8 12.4c-17.6 9.2-28.6 26.6-28.6 45.4s11 36.2 28.6 45.4l23.8 12.4-8.2 25.6c-6 19-1.6 39 11.8 52.4s33.4 17.8 52.4 11.8l25.6-8.2 12.4 23.8c18.4 35.4 72.4 35.4 90.8 0l12.4-23.8 25.6 8.2c18.8 6 39 1.6 52.4-11.8s17.8-33.4 11.8-52.4l-8.2-25.6 23.8-12.4c17.6-9.2 28.6-26.6 28.6-45.4s-11-36.2-28.6-45.4zM1024 528c0 109.6-85.2 199.6-192.6 207.4-7.8 89.8-83.6 160.6-175.4 160.6-35.6 0-69.6-10.6-98.4-30.4-45 59-114.6 94.4-189.6 94.4-132.4 0-240-107.6-240-240v-0.8c-76.6-32-128-107-128-191.2 0-114.6 93.4-208 208-208h28.6c3.6 22.8 11.4 44.4 23.2 64h-51.8c-79.4 0-144 64.6-144 144 0 64.6 43.8 121.4 106.6 138.4l26.6 7.2-4 34.4c-0.6 4-1.2 8-1.2 12 0 97 79 176 176 176 64.4 0 123.6-35.8 154.4-93.6l21.2-39.6 30.4 33c21.8 23.4 50.8 36.2 82 36.2 61.8 0 112-50.2 112-112 0-3.2-0.6-6.2-1.6-13.8l-5-40 47 4.8c2.4 0.4 5 0.8 7.6 0.8 79.4 0 144-64.6 144-144s-64.6-144-144-144h-51.8c11.8-19.6 19.6-41.2 23.2-64h28.6c114.6 0.2 208 93.6 208 208.2z" />
<glyph unicode="&#xe923;" glyph-name="cloud-hail" d="M752 224c-26.6 0-48-21.4-48-48s21.4-48 48-48 48 21.4 48 48-21.4 48-48 48zM368 32c-26.6 0-48-21.4-48-48s21.4-48 48-48 48 21.4 48 48-21.4 48-48 48zM624 32c-26.6 0-48-21.4-48-48s21.4-48 48-48 48 21.4 48 48-21.4 48-48 48zM496 224c-26.6 0-48-21.4-48-48s21.4-48 48-48 48 21.4 48 48-21.4 48-48 48zM112 32c-26.6 0-48-21.4-48-48s21.4-48 48-48 48 21.4 48 48-21.4 48-48 48zM240 224c-26.6 0-48-21.4-48-48s21.4-48 48-48 48 21.4 48 48-21.4 48-48 48zM831.4 735.4c-7.8 89.8-83.6 160.6-175.4 160.6-35.6 0-69.6-10.6-98.4-30.4-45 59-114.6 94.4-189.6 94.4-132.4 0-240-107.6-240-240v-0.8c-76.6-32-128-107-128-191.2 0-114.6 93.4-208 208-208h608c114.6 0 208 93.4 208 208 0 109.6-85.2 199.6-192.6 207.4zM816 384h-608c-79.4 0-144 64.6-144 144 0 64.6 43.8 121.4 106.6 138.4l26.6 7.2-4 34.4c-0.6 4-1.2 8-1.2 12 0 97 79 176 176 176 64.4 0 123.6-35.8 154.4-93.6l21.2-39.6 30.4 33c21.8 23.4 50.8 36.2 82 36.2 61.8 0 112-50.2 112-112 0-3.2-0.6-6.2-1.6-13.8l-5-40 47 4.8c2.4 0.4 5 0.8 7.6 0.8 79.4 0 144-64.6 144-144s-64.6-143.8-144-143.8z" />
<glyph unicode="&#xe924;" glyph-name="clouds-sun" horiz-adv-x="1280" d="M1280 443.4c0 103.2-80.4 187-179.2 187h-1c-33.2 81.4-110.6 138.4-198.8 138.4-92.8 0-172.4-60.2-203-148.4-50.6-17.6-90.4-58.2-109.4-109.8-96.6-10-172.6-91-172.6-190.2 0-3.6 0.2-7.4 0.4-11.2-76-26.4-128.4-98.4-128.4-181 0-106 86.2-192.2 192-192.2h480c105.8 0 192 86.2 192 192.2 0 49.4-18.8 94.2-49.6 128.2 98 1 177.6 84.4 177.6 187zM960 0h-480c-70.6 0-128 57.4-128 128.2 0 62 44.4 115 105.6 125.8l33 5.8-7.2 32.6c-2.2 10-3.4 19.2-3.4 27.8 0 70.6 57.4 128.2 128 128.2 49.2 0 94.4-29 115.6-74l17.2-36.8 31.6 25.4c17.6 14 38.2 21.4 59.6 21.4 53 0 96-43 96-96v-32h32c70.6 0 128-57.4 128-128.2s-57.4-128.2-128-128.2zM1100.8 320.4h-112.2c-15 73-79.4 128.2-156.6 128.2-24 0-47.4-5.4-68.8-15.8-26 36-64 61.6-106.4 73 19.2 34.6 53.4 58.2 93.4 60.2 11.2 78.6 74 138.8 150.6 138.8 80.6 0 145.8-66.6 151.8-151 14.8 7.4 30.6 12.6 48 12.6 63.6 0 115.2-55 115.2-123 0.2-68-51.4-123-115-123zM331 335.8c-4.2 2-8.6 3.4-13.2 3.4-2 0-4.2-0.2-6.2-0.6l-126.4-25 25 126.4c2.4 12.6-2.8 25.6-13.6 33l-107 71.6 107 71.6c10.8 7.2 16 20.2 13.6 33l-25 126.4 126.4-25c13-2.6 25.6 3 32.8 13.6l71.6 107 71.6-107.2c7.2-10.6 19.8-16.2 32.8-13.6l126.4 25-24.2-122.4c8.4 5.6 16.8 11 26 15.6 14.6 31.4 35 58.8 58.6 82.4l11.6 59c2 10.4-1.2 21.2-8.8 28.8s-18 11-28.8 8.8l-152.4-30.2-86.2 129.2c-12 17.8-41.2 17.8-53.2 0l-86.4-129.2-152.4 30.4c-10.6 2.2-21.2-1.4-28.8-8.8-7.6-7.6-10.8-18.4-8.8-28.8l30.2-152.6-129-86.4c-8.8-6-14.2-16-14.2-26.6s5.4-20.6 14.2-26.6l129-86.4-30.2-152.4c-2-10.6 1.2-21.4 8.8-28.8s18.4-10.8 28.8-8.8l112.6 22.2c17.6 28 40.6 52.6 67.8 72zM416 660.4c57.6 0 105-42.4 113.8-97.6 4.8 1.6 9.6 3.6 14.6 4.8 10 18 22.4 34.2 36 49-27.8 63.4-91 107.8-164.4 107.8-99 0-179.6-80.6-179.6-179.8 0-79 51.4-145.4 122.2-169.6 4.6 21.2 11.8 41.2 21.2 60.2-46 15.2-79.6 58.2-79.6 109.4 0.2 63.8 52 115.8 115.8 115.8z" />
<glyph unicode="&#xe925;" glyph-name="clouds" horiz-adv-x="1280" d="M1087.4 351.4c-7.8 89.8-83.4 160.6-175.4 160.6-14.2 0-28-2.2-41.4-5.4 15.8 30.6 25.4 64.8 25.4 101.4 0 123.6-100.4 224-224 224-21 0-41.8-3-62-9-44 83-131.2 137-226 137-123.6 0-227.6-87.8-250.2-207.6-78.8-23.6-133.8-96-133.8-180 0-104 84.6-188.4 188.4-188.4h200.4c-3.2-15.6-4.8-31.6-4.8-48v-0.8c-76.6-32-128-107-128-191.2 0-114.6 93.4-208 208-208h608c114.6 0 208 93.4 208 208 0 109.6-85.2 199.6-192.6 207.4zM188.4 448c-68.6 0-124.4 55.8-124.4 124.4 0 60.6 43.6 112 103.6 122.2l24 4 2.4 24.2c10 98.8 91.6 173.2 190 173.2 79 0 151-50 179.2-124.6l12-32 31 14c21.2 9.6 43.4 14.6 65.8 14.6 88.2 0 160-71.8 160-160 0-39.8-14.8-76.2-39.4-104.4-44.4 45-104 72.4-168.6 72.4-91.6 0-170.6-52.2-211-128h-224.6zM1072 0h-608c-79.4 0-144 64.6-144 144 0 64.6 43.8 121.4 106.6 138.4l26.6 7.2-4 34.4c-0.6 4-1.2 8-1.2 12 0 97 79 176 176 176 64.4 0 123.6-35.8 154.4-93.6l21.2-39.6 30.4 33c21.6 23.4 50.8 36.2 82 36.2 61.8 0 112-50.2 112-112 0-3.2-0.6-6.2-1.6-13.8l-5-40 47 4.8c2.4 0.4 5 0.8 7.6 0.8 79.4 0 144-64.6 144-144s-64.6-143.8-144-143.8z" />
<glyph unicode="&#xe926;" glyph-name="cloud-moon-rain" horiz-adv-x="1152" d="M1147.8 485c-7.2 15.4-23 25.2-39.8 25.2h-2.8l-5.6-0.8c-12.6-2.4-25.2-3.6-37.8-3.6-108.8 0-197.4 88-197.4 196.4 0 70.4 38.4 135.8 100.2 170.6 16.4 9.2 24.8 27.2 21.8 45.6-3.2 18.6-17 32.6-35.6 36-19.4 3.8-39.2 5.6-58.8 5.6-134.2 0-247.2-82.8-295.4-199 20.4-5 40-12.6 58-22.8 38.2 91.2 127.8 156 233 157.8-54.6-48.8-87-119.2-87-193.6 0-141.4 114-257 255.2-260.2-44.6-36.4-100.6-56.8-159.6-57.6v-0.4c0-22-3-43.4-8.2-63.8 1.4 0 2.8-0.2 4.2-0.2 97.4 0 188.6 43.2 250 118.4 10.6 13 12.8 31 5.6 46.4zM702.6 565.4c-10.6 78.2-77.6 138.6-158.6 138.6-17.2 0-34-2.8-50.4-8.6-39.4 46-96.4 72.6-157.6 72.6-113 0-205.4-90.6-208-203.2-75.6-26.6-128-98.6-128-180.8 0-105.8 86.2-192 192-192h448c105.8 0 192 86.2 192 192 0 2.6-0.6 5.2-0.6 8-3.4 79.2-55 148-128.8 173.4zM640 256h-448c-70.6 0-128 57.4-128 128 0 61.2 43.6 114 104 125.6l29 5.6-4 36c-0.4 3-0.8 5.8-0.8 8.8 0 79.4 64.6 144 144 144 48.6 0 93.6-24.4 120.4-65.6l16.2-24.8 26 14.2c65.4 35.6 141.4-16.4 141.6-80.8l-0.4-32.4 25.6-5.2c59.6-12 102.6-64.6 102.6-125.4-0.2-70.6-57.6-128-128.2-128zM340.4 123.8c-15.2 8.6-34.8 3.6-43.6-12l-73.2-128c-8.8-15.4-3.4-34.8 12-43.6 5-2.8 10.4-4.2 15.8-4.2 11 0 21.8 5.8 27.8 16.2l73.2 128c8.8 15.4 3.4 34.8-12 43.6zM148.4 123.8c-15.2 8.6-34.8 3.6-43.6-12l-73.2-128c-8.8-15.4-3.4-34.8 12-43.6 5-2.8 10.4-4.2 15.8-4.2 11 0 21.8 5.8 27.8 16.2l73.2 128c8.8 15.4 3.4 34.8-12 43.6zM532.4 123.8c-15.2 8.6-34.8 3.6-43.6-12l-73.2-128c-8.8-15.4-3.4-34.8 12-43.6 5-2.8 10.4-4.2 15.8-4.2 11 0 21.8 5.8 27.8 16.2l73.2 128c8.8 15.4 3.4 34.8-12 43.6zM724.4 123.8c-15.2 8.6-34.8 3.6-43.6-12l-73.2-128c-8.8-15.4-3.4-34.8 12-43.6 5-2.8 10.4-4.2 15.8-4.2 11 0 21.8 5.8 27.8 16.2l73.2 128c8.8 15.4 3.4 34.8-12 43.6z" />
<glyph unicode="&#xe927;" glyph-name="clouds-moon" horiz-adv-x="1280" d="M925.2 317.8c-14 74-79.2 130.2-157.2 130.2 0 105.8-86.2 192-192 192h-11c-26.6 75.6-99 128-181 128s-154.4-52.4-181-128h-11c-105.8 0-192-86.2-192-192s86.2-192 192-192h81.6c-30.8-34.2-49.6-79-49.6-128 0-105.8 86.2-192 192-192h480c105.8 0 192 86.2 192 192 0 96-70.8 175.6-162.8 189.8zM192 320c-70.6 0-128 57.4-128 128s57.4 128 128 128h61.4l5.2 25.6c12 59.4 64.8 102.4 125.4 102.4s113.4-43 125.4-102.4l5.2-25.6h61.4c70.6 0 128-57.4 128-128 0-5.2-1.4-10-2-14.8-0.8-0.4-1.8-0.6-2.8-1-35.6 49.4-93.4 79.8-155.2 79.8-105.8 0-192-86.2-192-192h-160zM896 0h-480c-70.6 0-128 57.4-128 128 0 62 44.4 114.8 105.6 125.6l33 5.8-7.2 32.6c-2.2 10-3.4 19.2-3.4 27.8 0 70.6 57.4 128 128 128 49.2 0 94.4-29 115.4-74l17.2-36.8 31.6 25.4c17.6 14 38.2 21.4 59.6 21.4 53 0 96-43 96-96v-32h32c70.6 0 128-57.4 128-128s-57.2-127.8-127.8-127.8zM1275.6 461.2c-7.6 16.2-24 26.6-41.8 26.6h-3l-5.8-0.8c-13.2-2.4-26.4-3.8-39.6-3.8-114.4 0-207.4 92.4-207.4 206.2 0 74 40.2 142.6 105.2 179.2 17.2 9.6 26.2 28.4 22.8 47.8-3.2 19.4-18 34.2-37.4 37.8-20.2 4-41 5.8-61.6 5.8-166 0-303.6-119.6-332-276.4 21.8-9.2 42-21.4 60.4-36.2 12 139 128.4 248.6 271.6 248.6h3.8c-60.8-50.8-96.8-126.4-96.8-206.6 0-149 121.8-270.2 271.4-270.2h2c-47-41-107-64-170.2-66.4 26.2-14.4 49.4-33.2 69-55.4 71.4 17 135.8 56.8 183.2 114.8 11.6 14 13.8 32.8 6.2 49z" />
<glyph unicode="&#xe928;" glyph-name="cloud-sun-rain" horiz-adv-x="1280" d="M596.4 123.8c-15.2 8.6-34.8 3.6-43.6-12l-73.2-128c-8.8-15.4-3.4-34.8 12-43.6 5-2.8 10.4-4.2 15.8-4.2 11 0 21.8 5.8 27.8 16.2l73.2 128c8.8 15.4 3.4 34.8-12 43.6zM384 680c52.8 0 96-40 102.2-91.2 9.6 7.2 19.6 13.8 30.2 19.8 3 16.8 7.8 33 13.6 48.6-28.6 51.4-83 86.8-146 86.8-92.4 0-167.4-75.2-167.4-167.6s75-167.6 167.4-167.6c0.6 0 1.2 0.2 1.8 0.2 2.2 22.8 7.4 44.8 15.4 65.6-5.6-1-11.2-1.8-17-1.8-57 0-103.4 46.4-103.4 103.4-0.2 57.2 46.2 103.8 103.2 103.8zM320.6 376.6c-7.2 10.6-19.8 16.2-32.8 13.6l-112-22.2 22.2 112c2.4 12.8-2.8 25.6-13.6 32.8l-94.8 63.6 94.8 63.6c10.8 7.2 16 20.2 13.6 32.8l-22.2 112 112-22.2c13-2.6 25.6 2.8 32.8 13.6l63.4 95 63.6-95c7.2-10.6 20-16.2 32.8-13.6l158.8 31.4c17.4 3.4 28.6 20.2 25.2 37.6s-20.6 29-37.6 25.2l-137.8-27.2-78.4 117c-11.8 17.8-41.2 17.8-53.2 0l-78.2-117-138 27.4c-10.6 2.2-21.4-1.2-28.8-8.8-7.6-7.6-10.8-18.4-8.8-29l27.4-138-116.8-78.2c-8.8-6-14.2-15.8-14.2-26.6 0-10.6 5.4-20.6 14.2-26.6l116.8-78.2-27.4-138c-2-10.6 1.2-21.4 8.8-29s18-11 28.8-8.8l137.8 27.4 78.2-117c6.2-9.2 16.4-14.2 26.6-14.2 6.2 0 12.4 1.8 17.8 5.4 14.6 9.8 18.6 29.8 8.8 44.4l-89.8 134.8zM980.4 123.8c-15.2 8.6-34.8 3.6-43.6-12l-73.2-128c-8.8-15.4-3.4-34.8 12-43.6 5-2.8 10.4-4.2 15.8-4.2 11 0 21.8 5.8 27.8 16.2l73.2 128c8.8 15.4 3.4 34.8-12 43.6zM1150.6 565.4c-10.6 78.2-77.6 138.6-158.6 138.6-17.2 0-34-2.8-50.4-8.6-39.4 45.8-96.4 72.6-157.6 72.6-113 0-205.4-90.6-208-203.2-75.6-26.6-128-98.6-128-180.8 0-105.8 86.2-192 192-192h448c105.8 0 192 86.2 192 192 0 82.6-53.2 155.2-129.4 181.4zM1088 256h-448c-70.6 0-128 57.4-128 128 0 61.2 43.6 114 104 125.6l29 5.6-4 36c-0.4 3-0.8 5.8-0.8 8.8 0 79.4 64.6 144 144 144 48.6 0 93.6-24.4 120.4-65.6l16.2-24.8 26 14.2c65.4 35.6 141.4-16.4 141.6-80.8l-0.4-32.4 25.6-5.2c59.6-12 102.6-64.6 102.6-125.4-0.2-70.6-57.6-128-128.2-128zM1172.4 123.8c-15.2 8.6-34.8 3.6-43.6-12l-73.2-128c-8.8-15.4-3.4-34.8 12-43.6 5-2.8 10.4-4.2 15.8-4.2 11 0 21.8 5.8 27.8 16.2l73.2 128c8.8 15.4 3.4 34.8-12 43.6zM788.4 123.8c-15.2 8.6-34.8 3.6-43.6-12l-73.2-128c-8.8-15.4-3.4-34.8 12-43.6 5-2.8 10.4-4.2 15.8-4.2 11 0 21.8 5.8 27.8 16.2l73.2 128c8.8 15.4 3.4 34.8-12 43.6z" />
<glyph unicode="&#xe929;" glyph-name="cloud-sleet" d="M174.4 252.6c-15.8 7.8-35 1.4-43-14.4l-128-256c-7.8-15.8-1.6-35 14.4-43 4.6-2.2 9.6-3.4 14.4-3.4 11.6 0 23 6.4 28.6 17.6l128 256c7.6 16.2 1.4 35.4-14.4 43.2zM686.4 252.6c-15.8 7.8-35 1.4-43-14.4l-128-256c-7.8-15.8-1.6-35 14.4-43 4.6-2.2 9.6-3.4 14.4-3.4 11.6 0 23 6.4 28.6 17.6l128 256c7.6 16.2 1.4 35.4-14.4 43.2zM989.8 181.8l-16 27.8c-4.4 7.6-14.2 10.2-21.8 5.8l-56-32.2v56.8c0 8.8-7.2 16-16 16h-32c-8.8 0-16-7.2-16-16v-56.8l-56 32.2c-7.6 4.4-17.4 1.8-21.8-5.8l-16-27.8c-4.4-7.6-1.8-17.4 5.8-21.8l55.8-32-55.8-32c-7.6-4.4-10.2-14.2-5.8-21.8l16-27.8c4.4-7.6 14.2-10.2 21.8-5.8l56 32.2v-56.8c0-8.8 7.2-16 16-16h32c8.8 0 16 7.2 16 16v56.8l56-32.2c7.6-4.4 17.4-1.8 21.8 5.8l16 27.8c4.4 7.6 1.8 17.4-5.8 21.8l-55.8 32 55.8 32c7.6 4.4 10.2 14.2 5.8 21.8zM477.8 181.8l-16 27.8c-4.4 7.6-14.2 10.2-21.8 5.8l-56-32.2v56.8c0 8.8-7.2 16-16 16h-32c-8.8 0-16-7.2-16-16v-56.8l-56 32.2c-7.6 4.4-17.4 1.8-21.8-5.8l-16-27.8c-4.4-7.6-1.8-17.4 5.8-21.8l55.8-32-55.8-32c-7.6-4.4-10.2-14.2-5.8-21.8l16-27.8c4.4-7.6 14.2-10.2 21.8-5.8l56 32.2v-56.8c0-8.8 7.2-16 16-16h32c8.8 0 16 7.2 16 16v56.8l56-32.2c7.6-4.4 17.4-1.8 21.8 5.8l16 27.8c4.4 7.6 1.8 17.4-5.8 21.8l-55.8 32 55.8 32c7.6 4.4 10.2 14.2 5.8 21.8zM1024 528c0 109.6-85.2 199.6-192.6 207.4-7.8 89.8-83.6 160.6-175.4 160.6-35.6 0-69.6-10.6-98.4-30.4-45 59-114.6 94.4-189.6 94.4-132.4 0-240-107.6-240-240v-0.8c-76.6-32-128-107-128-191.2 0-114.6 93.4-208 208-208h608c114.6 0 208 93.4 208 208zM64 528c0 64.6 43.8 121.4 106.6 138.4l26.6 7.2-4 34.4c-0.6 4-1.2 8-1.2 12 0 97 79 176 176 176 64.4 0 123.6-35.8 154.4-93.6l21.2-39.6 30.4 33c21.8 23.4 50.8 36.2 82 36.2 61.8 0 112-50.2 112-112 0-3.2-0.6-6.2-1.6-13.8l-5-40 47 4.8c2.4 0.4 5 0.8 7.6 0.8 79.4 0 144-64.6 144-144s-64.6-144-144-144h-608c-79.4 0.2-144 64.8-144 144.2z" />
<glyph unicode="&#xe92a;" glyph-name="cloud-showers" d="M831.4 735.4c-7.8 89.8-83.6 160.6-175.4 160.6-35.6 0-69.6-10.6-98.4-30.4-45 59-114.6 94.4-189.6 94.4-132.4 0-240-107.6-240-240v-0.8c-76.6-32-128-107-128-191.2 0-114.6 93.4-208 208-208h608c114.6 0 208 93.4 208 208 0 109.6-85.2 199.6-192.6 207.4zM816 384h-608c-79.4 0-144 64.6-144 144 0 64.6 43.8 121.4 106.6 138.4l26.6 7.2-4 34.4c-0.6 4-1.2 8-1.2 12 0 97 79 176 176 176 64.4 0 123.6-35.8 154.4-93.6l21.2-39.6 30.4 33c21.8 23.4 50.8 36.2 82 36.2 61.8 0 112-50.2 112-112 0-3.2-0.6-6.2-1.6-13.8l-5-40 47 4.8c2.4 0.4 5 0.8 7.6 0.8 79.4 0 144-64.6 144-144s-64.6-143.8-144-143.8zM96 224c-17.6 0-32-14.4-32-32v-160c0-17.6 14.4-32 32-32s32 14.4 32 32v160c0 17.6-14.4 32-32 32zM288 160c-17.6 0-32-14.4-32-32v-160c0-17.6 14.4-32 32-32s32 14.4 32 32v160c0 17.6-14.4 32-32 32zM480 224c-17.6 0-32-14.4-32-32v-160c0-17.6 14.4-32 32-32s32 14.4 32 32v160c0 17.6-14.4 32-32 32zM672 160c-17.6 0-32-14.4-32-32v-160c0-17.6 14.4-32 32-32s32 14.4 32 32v160c0 17.6-14.4 32-32 32zM864 224c-17.6 0-32-14.4-32-32v-160c0-17.6 14.4-32 32-32s32 14.4 32 32v160c0 17.6-14.4 32-32 32z" />
<glyph unicode="&#xe92b;" glyph-name="cloud" horiz-adv-x="1280" d="M1143.4 482.4c5.6 19.8 8.6 40.4 8.6 61.6 0 123.8-100.2 224-224 224-33.4 0-65.8-7.2-96-21.6-63.2 90-168.6 149.6-288 149.6-188.8 0-343.4-149-351.6-336.4-114-40-192.4-148.2-192.4-271.6 0-159.2 128.8-288 288-288h736c141.4 0 256 114.4 256 256 0 94-51.6 181.6-136.6 226.4zM1024 64h-736c-123.8 0-224 100.2-224 224 0 113.6 84.4 207.4 194 222-1.4 11.2-2 22.6-2 34 0 159 129 288 288 288 120.6 0 223.8-74 266.8-179.2 29.2 31.4 70.8 51.2 117.2 51.2 88.4 0 160-71.6 160-160 0-37-12.6-71.2-33.8-98.4 91.8-14.4 161.8-93.8 161.8-189.6 0-106-86-192-192-192z" />
<glyph unicode="&#xe92c;" glyph-name="cloud-showers-heavy" d="M367.8 219.8c-15.2 8.8-34.8 3.6-43.6-12l-128-224c-8.8-15.4-3.4-35 12-43.6 5-2.8 10.4-4.2 15.8-4.2 11 0 21.8 5.8 27.8 16.2l128 224c8.8 15.2 3.4 34.8-12 43.6zM559.8 219.8c-15.2 8.8-34.8 3.6-43.6-12l-128-224c-8.8-15.4-3.4-35 12-43.6 5-2.8 10.4-4.2 15.8-4.2 11 0 21.8 5.8 27.8 16.2l128 224c8.8 15.2 3.4 34.8-12 43.6zM175.8 219.8c-15.2 8.8-34.8 3.6-43.6-12l-128-224c-8.8-15.4-3.4-35 12-43.6 5-2.8 10.4-4.2 15.8-4.2 11 0 21.8 5.8 27.8 16.2l128 224c8.8 15.2 3.4 34.8-12 43.6zM943.8 219.8c-15.2 8.8-34.8 3.6-43.6-12l-128-224c-8.8-15.4-3.4-35 12-43.6 5-2.8 10.4-4.2 15.8-4.2 11 0 21.8 5.8 27.8 16.2l128 224c8.8 15.2 3.4 34.8-12 43.6zM751.8 219.8c-15.2 8.8-34.8 3.6-43.6-12l-128-224c-8.8-15.4-3.4-35 12-43.6 5-2.8 10.4-4.2 15.8-4.2 11 0 21.8 5.8 27.8 16.2l128 224c8.8 15.2 3.4 34.8-12 43.6zM831.4 735.4c-7.8 89.8-83.6 160.6-175.4 160.6-35.6 0-69.6-10.6-98.4-30.4-45 59-114.6 94.4-189.6 94.4-132.2 0-240-107.6-240-240v-0.8c-76.6-32-128-107-128-191.2 0-114.6 93.4-208 208-208h608c114.6 0 208 93.4 208 208 0 109.6-85.2 199.6-192.6 207.4zM816 384h-608c-79.4 0-144 64.6-144 144 0 64.6 43.8 121.4 106.6 138.4l26.6 7.2-4 34.4c-0.6 4-1.2 8-1.2 12 0 97 79 176 176 176 64.4 0 123.6-35.8 154.4-93.6l21.2-39.6 30.4 33c21.8 23.4 50.8 36.2 82 36.2 61.8 0 112-50.2 112-112 0-3.2-0.6-6.2-1.6-13.8l-5-40 47 4.8c2.4 0.4 5 0.8 7.6 0.8 79.4 0 144-64.6 144-144s-64.6-143.8-144-143.8z" />
<glyph unicode="&#xe92d;" glyph-name="cloud-rain" d="M237 221.6c-5.6 20.4-23.6 34.2-44.6 34.4-23.2-1.4-39.4-13.6-45.4-34.2-9.4-32.6-23.6-53.8-37.6-74.2-17.2-25.4-34.8-51.6-34.8-90.6 0-66.8 52.6-121 117.4-121s117.4 54.2 117.4 121c0 39.2-17.6 65.2-34.8 90.4-14 20.6-28.2 41.6-37.6 74.2zM192 0c-29.4 0-53.4 25.6-53.4 57 0 18.6 8.2 31.6 23.8 54.6 9.2 13.6 19.8 29.4 29.4 49.2 9.6-19.8 20.4-35.6 29.6-49.2 15.6-23 23.8-36 23.8-54.6 0.2-31.4-23.8-57-53.2-57zM557 221.6c-5.6 20.4-23.6 34.2-44.6 34.4h-0.4c-21 0-39-13.6-45-34.2-9.4-32.6-23.6-53.8-37.6-74.2-17.2-25.4-34.8-51.6-34.8-90.6 0-66.8 52.6-121 117.4-121s117.4 54.2 117.4 121c0 39.2-17.6 65.2-34.8 90.4-14 20.6-28.2 41.6-37.6 74.2zM512 0c-29.4 0-53.4 25.6-53.4 57 0 18.6 8.2 31.6 23.8 54.6 9.2 13.6 19.8 29.4 29.4 49.2 9.6-19.8 20.4-35.6 29.6-49.2 15.6-23 23.8-36 23.8-54.6 0.2-31.4-23.8-57-53.2-57zM877 221.6c-5.6 20.4-23.6 34.2-44.6 34.4-20.8-1.4-39.4-13.6-45.4-34.2-9.4-32.6-23.6-53.8-37.6-74.2-17.2-25.4-34.8-51.6-34.8-90.6 0-66.8 52.6-121 117.4-121s117.4 54.2 117.4 121c0 39.2-17.6 65.2-34.8 90.4-14 20.6-28.2 41.6-37.6 74.2zM832 0c-29.4 0-53.4 25.6-53.4 57 0 18.6 8.2 31.6 23.8 54.6 9.2 13.6 19.8 29.4 29.4 49.2 9.6-19.8 20.4-35.6 29.6-49.2 15.6-23 23.8-36 23.8-54.6 0.2-31.4-23.8-57-53.2-57zM831.4 735.4c-7.8 89.8-83.6 160.6-175.4 160.6-35.6 0-69.6-10.6-98.4-30.4-45 59-114.6 94.4-189.6 94.4-132.4 0-240-107.6-240-240v-0.8c-76.6-32-128-107-128-191.2 0-114.6 93.4-208 208-208h608c114.6 0 208 93.4 208 208 0 109.6-85.2 199.6-192.6 207.4zM816 384h-608c-79.4 0-144 64.6-144 144 0 64.6 43.8 121.4 106.6 138.4l26.6 7.2-4 34.4c-0.6 4-1.2 8-1.2 12 0 97 79 176 176 176 64.4 0 123.6-35.8 154.4-93.6l21.2-39.6 30.4 33c21.8 23.4 50.8 36.2 82 36.2 61.8 0 112-50.2 112-112 0-3.2-0.6-6.2-1.6-13.8l-5-40 47 4.8c2.4 0.4 5 0.8 7.6 0.8 79.4 0 144-64.6 144-144s-64.6-143.8-144-143.8z" />
<glyph unicode="&#xe92e;" glyph-name="cloud-snow" d="M253.8 181.8l-16 27.8c-4.4 7.6-14.2 10.2-21.8 5.8l-56-32.2v56.8c0 8.8-7.2 16-16 16h-32c-8.8 0-16-7.2-16-16v-56.8l-56 32.2c-7.6 4.4-17.4 1.8-21.8-5.8l-16-27.8c-4.4-7.6-1.8-17.4 5.8-21.8l55.8-32-55.8-32c-7.6-4.4-10.2-14.2-5.8-21.8l16-27.8c4.4-7.6 14.2-10.2 21.8-5.8l56 32.2v-56.8c0-8.8 7.2-16 16-16h32c8.8 0 16 7.2 16 16v56.8l56-32.2c7.6-4.4 17.4-1.8 21.8 5.8l16 27.8c4.4 7.6 1.8 17.4-5.8 21.8l-55.8 32 55.8 32c7.6 4.4 10.2 14.2 5.8 21.8zM1021.8 181.8l-16 27.8c-4.4 7.6-14.2 10.2-21.8 5.8l-56-32.2v56.8c0 8.8-7.2 16-16 16h-32c-8.8 0-16-7.2-16-16v-56.8l-56 32.2c-7.6 4.4-17.4 1.8-21.8-5.8l-16-27.8c-4.4-7.6-1.8-17.4 5.8-21.8l55.8-32-55.8-32c-7.6-4.4-10.2-14.2-5.8-21.8l16-27.8c4.4-7.6 14.2-10.2 21.8-5.8l56 32.2v-56.8c0-8.8 7.2-16 16-16h32c8.8 0 16 7.2 16 16v56.8l56-32.2c7.6-4.4 17.4-1.8 21.8 5.8l16 27.8c4.4 7.6 1.8 17.4-5.8 21.8l-55.8 32 55.8 32c7.6 4.4 10.2 14.2 5.8 21.8zM637.8 117.8l-16 27.8c-4.4 7.6-14.2 10.2-21.8 5.8l-56-32.2v56.8c0 8.8-7.2 16-16 16h-32c-8.8 0-16-7.2-16-16v-56.8l-56 32.2c-7.6 4.4-17.4 1.8-21.8-5.8l-16-27.8c-4.4-7.6-1.8-17.4 5.8-21.8l55.8-32-55.8-32c-7.6-4.4-10.2-14.2-5.8-21.8l16-27.8c4.4-7.6 14.2-10.2 21.8-5.8l56 32.2v-56.8c0-8.8 7.2-16 16-16h32c8.8 0 16 7.2 16 16v56.8l56-32.2c7.6-4.4 17.4-1.8 21.8 5.8l16 27.8c4.4 7.6 1.8 17.4-5.8 21.8l-55.8 32 55.8 32c7.6 4.4 10.2 14.2 5.8 21.8zM208 320h608c114.6 0 208 93.4 208 208 0 109.6-85.2 199.6-192.6 207.4-8 89.8-83.6 160.6-175.4 160.6-35.6 0-69.6-10.6-98.4-30.4-45 59-114.6 94.4-189.6 94.4-132.4 0-240-107.6-240-240v-0.8c-76.6-32-128-107-128-191.2 0-114.6 93.4-208 208-208zM170.6 666.4l26.6 7.2-4 34.4c-0.6 4-1.2 8-1.2 12 0 97 79 176 176 176 64.4 0 123.6-35.8 154.4-93.6l21.2-39.6 30.4 33c21.8 23.4 50.8 36.2 82 36.2 61.8 0 112-50.2 112-112 0-3.2-0.6-6.2-1.6-13.8l-5-40 47 4.8c2.4 0.4 5 0.8 7.6 0.8 79.4 0 144-64.6 144-144s-64.6-144-144-144h-608c-79.4 0-144 64.6-144 144 0 64.8 43.8 121.6 106.6 138.6z" />
<glyph unicode="&#xe92f;" glyph-name="cloud-rainbow" horiz-adv-x="1152" d="M1136.4 896c8.6 0.2 15.6 7 15.6 15.8v32c0 9-7.4 16.4-16.4 16.2-281.2-5.8-531.8-160.6-663.4-408.4-32 15.6-67.4 24.4-104.2 24.4-132.4 0-240-107.6-240-240v-0.8c-76.6-32-128-107-128-191.2 0-114.6 93.4-208 208-208h608c114.6 0 208 93.4 208 208 0 77.6-43.2 144.8-106.2 180.4 50.6 72.2 131.6 118.2 219 123 8.6 0.4 15.4 7.2 15.4 15.8v32c0 9-7.6 16.6-16.6 16.2-113.6-5.4-218-67.2-279.6-164.2-8.2 1.6-16.2 3.6-24.8 4.2-4.6 52.6-32.6 98-73.2 127.2 91.2 117.4 228.6 188.6 378.4 193.2 8.6 0.2 15.6 7.2 15.6 15.8v32c0 9-7.6 16.6-16.6 16.2-174.2-5-333.4-90-436.4-229.6-13.8 3.6-28 6-43 6-35.6 0-69.6-10.6-98.4-30.4-9.4 12.4-20.4 23-31.8 33.2 119.8 230.6 350.6 375.4 610.6 381zM574 411.8c21.6 23.4 50.8 36.2 82 36.2 61.8 0 112-50.2 112-112 0-3.2-0.6-6.2-1.6-13.8l-5-40 47 4.8c2.4 0.4 5 0.8 7.6 0.8 79.4 0 144-64.6 144-144s-64.6-144-144-144h-608c-79.4 0-144 64.6-144 144 0 64.6 43.8 121.4 106.6 138.4l26.6 7.2-4 34.4c-0.6 4-1.2 8-1.2 12 0 97 79 176 176 176 64.4 0 123.6-35.8 154.4-93.6l21.2-39.6 30.4 33.2z" />
<glyph unicode="&#xe930;" glyph-name="cloud-sun" horiz-adv-x="1280" d="M1087.4 351.4c-7.8 89.8-83.4 160.6-175.4 160.6-35.6 0-69.6-10.6-98.4-30.4-45 59-114.6 94.4-189.6 94.4-132.4 0-240-107.6-240-240v-0.8c-76.6-32-128-107-128-191.2 0-114.6 93.4-208 208-208h608c114.6 0 208 93.4 208 208 0 109.6-85.2 199.6-192.6 207.4zM1072 0h-608c-79.4 0-144 64.6-144 144 0 64.6 43.8 121.4 106.6 138.4l26.6 7.2-4 34.4c-0.6 4-1.2 8-1.2 12 0 97 79 176 176 176 64.4 0 123.6-35.8 154.4-93.6l21.2-39.6 30.4 33c21.6 23.4 50.8 36.2 82 36.2 61.8 0 112-50.2 112-112 0-3.2-0.6-6.2-1.6-13.8l-5-40 47 4.8c2.4 0.4 5 0.8 7.6 0.8 79.4 0 144-64.6 144-144s-64.6-143.8-144-143.8zM185.2 314l25 126.4c2.4 12.6-2.8 25.6-13.6 32.8l-107 71.6 107 71.6c10.8 7.2 16 20.2 13.6 32.8l-25 126.6 126.4-25c12.8-2.6 25.6 3 32.8 13.6l71.6 107 71.6-107c7.2-10.6 19.8-16.2 32.8-13.6l126.4 25-25-126.4c-0.6-3.2-0.2-6.4 0-9.6 0.8 0 1.4 0.2 2.2 0.2 20.2 0 40-2.2 59.2-6 0.4 1 1 1.8 1.2 3l34.4 173.4c2 10.4-1.2 21.2-8.8 28.8s-18.4 11-28.8 8.8l-152.4-30.2-86.2 128.8c-12 17.8-41.2 17.8-53.2 0l-86.4-129-152.2 30.2c-10.6 2.2-21.4-1.2-28.8-8.8-7.6-7.6-10.8-18.4-8.8-28.8l30.2-152.4-129.2-86.2c-8.8-6-14.2-16-14.2-26.6s5.4-20.6 14.2-26.6l129-86.4-30.2-152.4c-2-10.4 1.2-21.2 8.8-28.8 6-6 14.2-9.4 22.6-9.4 2 0 4.2 0.2 6.2 0.6l65.6 13c12.4 27.6 29.2 53 50.2 75.2l-81.2-16.2zM416 660.6c37 0 69.6-17.8 90.8-44.8 20.4 8.6 41.6 15.2 63.8 19.2-31.2 53.2-88.4 89.6-154.6 89.6-99 0-179.6-80.6-179.6-179.6 0-66 36.2-123.4 89.6-154.6 4 22.2 10.6 43.4 19.2 63.8-27.2 21.2-44.8 53.8-44.8 90.8 0 63.6 51.8 115.6 115.6 115.6z" />
<glyph unicode="&#xe931;" glyph-name="moon-cloud" horiz-adv-x="1152" d="M640 358.4c0 90.8-73.2 164.8-163.6 166.4-32.2 68.2-101.6 115.2-180.4 115.2-83.4 0-155.2-50.4-185-125-65-22.8-111-84.2-111-156.6 0-91.8 74.6-166.4 166.4-166.4h307.2c91.8 0 166.4 74.6 166.4 166.4zM473.6 256h-307.2c-56.6 0-102.4 45.8-102.4 102.4 0 55 43.6 99.6 98 102 9.8 65.4 65.8 115.6 134 115.6 71.6 0 129.6-55.6 135-125.8 13 6.2 27.2 10.6 42.6 10.6 56.6 0 102.4-45.8 102.4-102.4s-45.8-102.4-102.4-102.4zM1147.2 257.6c-8.2 17.2-24.8 27.8-43.6 27.8-3 0-6-0.2-9.2-0.8-15.4-3-31-4.4-46.4-4.4-134 0-243 109.4-243 243.8 0 87.4 47.2 168.6 123.2 212 17.8 10.2 27.2 30 23.8 50.2-3.4 20.4-18.8 35.8-39 39.6-23 4.2-46.6 6.4-70 6.4-153.2 0-285.4-90.6-346.8-221 7-8.2 13.6-17 19.6-26 11.8-2.2 23.2-5.6 34.2-9.6 49.4 112.8 162 192.4 293 192.4 6 0 11.8-0.2 17.8-0.4-74.8-57.8-119.8-147.8-119.8-243.8 0-169.8 137.8-307.8 307-307.8 5.2 0 10.4 0.2 15.6 0.4-59.2-56.6-137.6-88.4-220.6-88.4-76.8 0-146.4 28.4-201.6 73.8-15.2-16.2-32.6-29.8-51.8-41.2 67.6-59.8 156.2-96.4 253.4-96.4 116.2 0 224.8 51.8 298 142.2 12 14.4 14.4 34.2 6.2 51.2z" />
<glyph unicode="&#xe932;" glyph-name="moon-stars" d="M667.8 107.6c-1.2 0-2.4-0.2-3.6-0.4-19.2-3.6-38.4-5.4-57.2-5.4-162.6 0-300 132.2-300 300.8 0 108.4 58 208 152.2 261.6 14.6 8.2 10.8 30.2-5.6 33.4-23.2 4.2-46.6 6.4-70 6.4-211.8 0-383.6-171.8-383.6-384 0-212 171.6-384 383.6-384 118.4 0 226.4 53.8 298 142.2 9.8 12 0.6 29.4-13.8 29.4zM383.6 0c-176.2 0-319.6 143.6-319.6 320 0 157 113.6 288 262.8 315-53.2-64.4-83.6-146.4-83.6-232.4 0-179.6 130.2-329.4 301-359.4-48-28-103.2-43.2-160.6-43.2zM1006.4 572.6l-97.2 48.6-48.6 97.2c-10.8 21.6-46.4 21.6-57.2 0l-48.6-97.2-97.2-48.6c-10.8-5.4-17.6-16.4-17.6-28.6s6.8-23.2 17.6-28.6l97.2-48.6 48.6-97.2c5.4-10.8 16.4-17.6 28.6-17.6s23.2 6.8 28.6 17.6l48.6 97.2 97.2 48.6c10.8 5.4 17.6 16.4 17.6 28.6s-6.8 23.2-17.6 28.6zM871 519.2c-6.2-3-11.2-8.2-14.4-14.4l-24.6-49.2-24.6 49.4c-3.2 6.2-8.2 11.2-14.4 14.4l-49.4 24.6 49.4 24.8c6.2 3 11.2 8.2 14.4 14.4l24.6 49.4 24.6-49.4c3.2-6.2 8.2-11.2 14.4-14.4l49.4-24.8-49.4-24.8zM608 768l32 64 64 32-64 32-32 64-32-64-64-32 64-32 32-64z" />
<glyph unicode="&#xe933;" glyph-name="poo-storm" horiz-adv-x="896" d="M640 352h-119l22 88.2c2.4 9.6 0.2 19.6-5.8 27.4s-15.4 12.4-25.2 12.4h-160c-14.6 0-27.6-10-31-24.2l-64-256c-5-20.4 10.4-39.8 31-39.8h123.2l-26.8-187.4c-3.2-22.2 15.4-36.4 31.6-36.4 17 0 25.4 12.4 27.2 15.2 6.8 10.6 223.8 351.6 223.8 351.6 13.6 21.4-2 49-27 49zM468.6 109.6l11.2 77.8c1.4 9.2-1.4 18.4-7.6 25.4-6 7-15 11-24.2 11h-119l48 192h94l-22-88.2c-5-20.4 10.4-39.8 31-39.8h101.6c-48.2-75.8-85.2-133.8-113-178.2zM785.8 564.4c0.2 3.8 0.4 7.6 0.4 11.6 0 72-45.6 133.6-109.8 158.6v1.4c0.2 123.6-102.4 224-228.4 224-13 0-24.8-1.6-35.6-3.2-22.2-3.4-41-18.2-49.4-38.8s-5.6-44.4 7.6-62.4c6.2-8.2 13.4-21.8 13.4-39.4 0-38.2-32.8-69.4-73.2-69.4h-27.4c-95.8 0-173.8-76.6-173.8-170.6 0-3.8 0.2-7.6 0.4-11.6-65.2-33-110-99.8-110-175.2 0-105.8 85.4-191.6 192-196.4 0 7.4 1 15 2.8 22.4l10.2 40.8h-3.8c-75.4-0.2-137.2 59.8-137.2 133.2 0 69.6 55.8 126.6 126 132.2-10 16-16.4 34.4-16.4 54.4 0 59 49.2 106.6 109.8 106.6h27.4c75.8 0 137.2 59.6 137.2 133.4 0 29-9.8 55.6-25.8 77.4 8.4 1.2 17 2.6 25.8 2.6 90.8 0 164.6-71.6 164.6-160 0-18.8-4-36.6-10-53.4h10c60.6 0 109.8-47.8 109.8-106.6 0-20.2-6.4-38.4-16.4-54.4 70.2-5.6 126-62.6 126-132.2 0-66.8-51.4-122-117.8-131.4-8-12.6-23-36.2-42-66h22.6c111 0 201.2 88.6 201.2 197.4 0 75.4-44.8 142.2-110.2 175z" />
<glyph unicode="&#xe934;" glyph-name="smoke" horiz-adv-x="1280" d="M1280 480c0 158.8-129.2 288-288 288-41 0-80.6-9.4-117.2-26-50.4 91.4-147.2 154-258.8 154-41 0-81.2-9-119.8-26.4-54.6 57.8-129 90.4-208.2 90.4-158.8 0-288-129.2-288-288 0-81.6 34.6-154.6 89.4-206.8-55.2-56.2-89.4-133-89.4-217.8 0-171.8 139.6-311.4 311.4-311.4h723c135.4 0 245.6 110.2 245.6 245.6 0 53.8-18 103.4-47.4 143.8 29.2 44.8 47.4 97.2 47.4 154.6zM1216 480c0-39.2-10.8-75.8-28.8-107.6-42 33.8-94.8 55-153 55-46.2 0-90.2-13-129.4-37.6-52.6 65.2-131 103.4-215.8 103.4-51 0-100.2-14.2-144-41-16.4 18.6-34.8 35-54.8 49.2 25.8 80.4 100.6 139 189.4 139 34 0 67-9 98.4-27l23.6-13.4 17.2 21c43.2 53 106.2 83.4 173 83.4 123.8-0.4 224.2-100.8 224.2-224.4zM64 672c0 123.6 100.4 224 224 224 68.2 0 132-31.4 175.2-86.2l16.8-21.4 23.8 13.2c36 20 73.8 30.2 112.2 30.2 88.6 0 165-50.2 203.8-123.6-11.4-8.8-22.8-17.4-33-28-34.2 15.6-70 23.6-106.8 23.6-112.8 0-208-71.6-245.6-171.2-38.4 16.8-80.2 26-123 26-64 0-123.4-19.4-172.8-52.6-45.6 41-74.6 100-74.6 166zM1034.4 0h-723c-136.4 0-247.4 111-247.4 247.4s111 247.4 247.4 247.4c79.6 0 155-39.2 201.4-104.6l19.4-27.2 26.4 20.4c38.6 30 83.8 45.8 130.8 45.8 73.8 0 141.6-37.8 181.4-101.2l19.6-31.2 28.2 23.6c33.6 28.2 73.8 43.2 116 43.2 100.2 0 181.6-81.4 181.6-181.6s-81.8-182-181.8-182z" />
<glyph unicode="&#xe935;" glyph-name="snow-blowing" horiz-adv-x="1280" d="M702 728.4l-15.2 26.4c-4.2 7.2-13.4 9.8-20.8 5.6l-81.2-47 16 59.8c2.2 8.2-2.6 16.4-10.8 18.6l-29.4 7.8c-8.2 2.2-16.4-2.6-18.6-10.8l-31.8-118.6-126.2-72.6v157.2l91.4 91.2c6.2 6.2 6.2 16.4 0 22.6l-22.6 22.6c-6.2 6.2-16.4 6.2-22.6 0l-46-46v98.8c0 8.8-7.2 16-16 16h-32c-8.8 0-16-7.2-16-16v-98.8l-46 46c-6.2 6.2-16.4 6.2-22.6 0l-22.6-22.6c-6.2-6.2-6.2-16.4 0-22.6l91.4-91.4v-157.2l-126.2 72.8-32.2 118.8c-2.2 8.2-10.6 13-18.6 10.8l-29.4-8c-8.2-2.2-13-10.6-10.8-18.6l16-59.8-81.2 47c-7.2 4.2-16.6 1.8-20.8-5.6l-15.2-26.4c-4.2-7.2-1.8-16.6 5.6-20.8l81.2-47-59.8-16c-8.2-2.2-13-10.6-10.8-18.6l7.8-29.4c2.2-8.2 10.6-13 18.6-10.8l118.6 31.8 127.8-73.8-127.8-73.8-118.4 32c-8.2 2.2-16.4-2.6-18.6-10.8l-7.8-29.4c-2.2-8.2 2.6-16.4 10.8-18.6l59.8-16-81.4-47c-7.2-4.2-9.8-13.4-5.6-20.8l15.2-26.4c4.2-7.2 13.4-9.8 20.8-5.6l81.2 47-16-59.8c-2.2-8.2 2.6-16.4 10.8-18.6l29.4-7.8c8.2-2.2 16.4 2.6 18.6 10.8l31.8 118.6 126.2 72.8v-157.2l-91.4-91.2c-6.2-6.2-6.2-16.4 0-22.6l22.6-22.6c6.2-6.2 16.4-6.2 22.6 0l46 46v-98.8c0-8.8 7.2-16 16-16h32c8.8 0 16 7.2 16 16v98.8l46-46c6.2-6.2 16.4-6.2 22.6 0l22.6 22.6c6.2 6.2 6.2 16.4 0 22.6l-91 91.2v157.2l126.2-72.8 31.8-118.6c2.2-8.2 10.6-13 18.6-10.8l29.4 7.8c8.2 2.2 13 10.6 10.8 18.6l-16 59.8 81.2-47c7.2-4.2 16.6-1.8 20.8 5.6l15.2 26.4c4.2 7.2 1.8 16.6-5.6 20.8l-81.2 47 59.8 16c8.2 2.2 13 10.6 10.8 18.6l-7.8 29.4c-2.2 8.2-10.6 13-18.6 10.8l-118.6-31.8-128 73.8 127.8 73.8 118.6-31.8c8.2-2.2 16.4 2.6 18.6 10.8l7.8 29.4c2.2 8.2-2.6 16.4-10.8 18.6l-59.8 16 81.2 47c7.4 4.2 10 13.4 5.8 20.6zM784 384h304c119.6 0 213.6 109.2 187.6 233.4-15.2 72.6-73.8 131.2-146.4 146.4-118.2 24.6-223-59.6-232.6-170.8-0.8-9.2 7-16.8 16-16.8h32.4c8.4 0 14.8 6.6 15.8 14.8 8.4 73.2 79 127.6 157.4 109.6 46.2-10.6 83.6-48.2 94.4-94.4 19.2-83.6-44.2-158.2-124.6-158.2h-304c-8.8 0-16-7.2-16-16v-32c0-8.8 7.2-16 16-16zM1079.4 320h-327.4c-8.8 0-16-7.2-16-16v-32c0-8.8 7.2-16 16-16h329.6c66.8 0 126.6-48.8 133-115.2 7.4-76.2-52.6-140.8-127.4-140.8-65.6 0-119.8 49.6-127.2 113-1 8.4-7.4 14.8-15.8 14.8h-32.2c-9.2 0-16.8-7.8-16-16.8 8.6-98.2 91-175.2 191.2-175.2 108 0 195.2 89.2 192 197.8-3 105.4-94.8 186.4-199.8 186.4z" />
<glyph unicode="&#xe936;" glyph-name="snowflakes" horiz-adv-x="1280" d="M1055.8 720c0-8.8 7.2-16 16-16h32c8.8 0 16 7.2 16 16v56.8l56-32.2c7.6-4.4 17.4-1.8 21.8 5.8l16 27.8c4.4 7.6 1.8 17.4-5.8 21.8l-55.8 32 55.8 32c7.6 4.4 10.2 14.2 5.8 21.8l-16 27.8c-4.4 7.6-14.2 10.2-21.8 5.8l-56-32.2v56.8c0 8.8-7.2 16-16 16h-32c-8.8 0-16-7.2-16-16v-56.8l-56 32.2c-7.6 4.4-17.4 1.8-21.8-5.8l-16-27.8c-4.4-7.6-1.8-17.4 5.8-21.8l55.8-32-55.8-32c-7.6-4.4-10.2-14.2-5.8-21.8l16-27.8c4.4-7.6 14.2-10.2 21.8-5.8l56 32.2v-56.8zM1216.2 448l55.8 32c7.6 4.4 10.2 14.2 5.8 21.8l-16 27.8c-4.4 7.6-14.2 10.2-21.8 5.8l-56-32.2v56.8c0 8.8-7.2 16-16 16h-32c-8.8 0-16-7.2-16-16v-56.8l-56 32.2c-7.6 4.4-17.4 1.8-21.8-5.8l-16-27.8c-4.4-7.6-1.8-17.4 5.8-21.8l55.8-32-55.8-32c-7.6-4.4-10.2-14.2-5.8-21.8l16-27.8c4.4-7.6 14.2-10.2 21.8-5.8l56 32.2v-56.8c0-8.8 7.2-16 16-16h32c8.8 0 16 7.2 16 16v56.8l56-32.2c7.6-4.4 17.4-1.8 21.8 5.8l16 27.8c4.4 7.6 1.8 17.4-5.8 21.8l-55.8 32zM775.8 293l105.4 28.6c8.4 2.2 13.4 11 11.2 19.6l-8.2 31c-2.2 8.6-11 13.6-19.4 11.4l-166.2-45.2-187.6 109.6 187.4 109.6 166.2-45.2c8.4-2.2 17.2 2.8 19.4 11.4l8.2 31c2.2 8.6-2.8 17.4-11.2 19.6l-105.4 28.6 111.8 65.4c7.6 4.4 10.2 14.2 5.8 21.8l-15.8 27.8c-4.4 7.6-14 10.2-21.6 5.8l-111.8-65.4 28.2 106.6c2.2 8.6-2.8 17.4-11.2 19.6l-30.6 8.2c-8.4 2.2-17.2-2.8-19.4-11.4l-44.6-168.4-187.4-109.6v219.4l122 123.2c6.2 6.2 6.2 16.4 0 22.6l-22.4 22.6c-6.2 6.2-16.2 6.2-22.4 0l-77.2-78v130.8c0 8.8-7 16-15.8 16h-31.6c-8.8 0-15.8-7.2-15.8-16v-130.8l-77.2 78c-6.2 6.2-16.2 6.2-22.4 0l-22.4-22.6c-6.2-6.2-6.2-16.4 0-22.6l121.8-123.4v-219.4l-187.4 109.6-44 168.8c-2.2 8.6-11 13.6-19.4 11.4l-30.6-8.2c-8.4-2.2-13.4-11-11.2-19.6l28.2-106.6-111.6 65.4c-7.6 4.4-17.2 1.8-21.6-5.8l-15.8-27.8c-4.4-7.6-1.8-17.4 5.8-21.8l111.8-65.4-105.2-28.8c-8.4-2.2-13.4-11-11.2-19.6l8.2-31c2.2-8.6 11-13.6 19.4-11.4l166.2 45.2 187.4-109.6-187.4-109.6-166.2 45.2c-8.4 2.2-17.2-2.8-19.4-11.4l-8.2-31c-2.2-8.6 2.8-17.4 11.2-19.6l105.4-28.6-111.8-65.2c-7.6-4.4-10.2-14.2-5.8-21.8l15.8-27.8c4.4-7.6 14-10.2 21.6-5.8l111.8 65.4-28.2-106.6c-2.2-8.6 2.8-17.4 11.2-19.6l30.6-8.2c8.4-2.2 17.2 2.8 19.4 11.4l44.6 168.4 187.4 109.6v-219.4l-122-123.4c-6.2-6.2-6.2-16.4 0-22.6l22.4-22.6c6.2-6.2 16.2-6.2 22.4 0l77.2 78v-130.8c0-8.8 7-16 15.8-16h31.6c8.8 0 15.8 7.2 15.8 16v130.8l77.2-78c6.2-6.2 16.2-6.2 22.4 0l22.4 22.6c6.2 6.2 6.2 16.4 0 22.6l-121.8 123.4v219.2l187.4-109.6 44.6-168.4c2.2-8.6 11-13.6 19.4-11.4l30.6 8.2c8.4 2.2 13.4 11 11.2 19.6l-28.2 106.6 111.8-65.4c7.6-4.4 17.2-1.8 21.6 5.8l15.8 27.8c4.4 7.6 1.8 17.4-5.8 21.8l-112.6 65.4z" />
<glyph unicode="&#xe937;" glyph-name="thunderstorm-moon" horiz-adv-x="1152" d="M1147.8 485c-7.2 15.4-23 25.2-39.8 25.2h-2.8l-5.4-0.8c-12.6-2.4-25.2-3.6-37.8-3.6-108.8 0-197.4 88-197.4 196.4 0 70.4 38.4 135.8 100.2 170.6 16.4 9.2 24.8 27.2 21.8 45.6-3.2 18.6-17 32.6-35.6 36-19.6 3.8-39.4 5.6-59 5.6-134.2 0-249.4-82.2-297.6-198.4 21-5 41-12.6 59.4-23 38.4 91 128.4 155.6 233.6 157.4-54.6-48.8-87-119.2-87-193.6 0-141.4 114-257 255.2-260.2-44.6-36.4-100.6-56.8-159.6-57.6v-0.4c0-22-3.6-43-9-63.6 1.6 0 3.2-0.4 4.8-0.4 97.4 0 188.6 43.2 250 118.4 11 13 13.2 31 6 46.4zM608 352h-119l22 88.2c2.4 9.6 0.2 19.6-5.8 27.4s-15.4 12.4-25.2 12.4h-160c-14.6 0-27.6-10-31-24.2l-64-256c-5-20.4 10.4-39.8 31-39.8h123.2l-26.8-187.4c-3.2-22.2 15.4-36.4 31.6-36.4 17 0 25.4 12.4 27.2 15.2 6.8 10.6 223.8 351.6 223.8 351.6 13.6 21.4-2 49-27 49zM436.6 109.6l11.2 77.8c1.4 9.2-1.4 18.4-7.6 25.4-6 7-15 11-24.2 11h-119l48 192h94l-22-88.2c-5-20.4 10.4-39.8 31-39.8h101.6c-48.2-75.8-85.2-133.8-113-178.2zM702.6 565.4c-10.6 78.2-77.6 138.6-158.6 138.6-17.2 0-34-2.8-50.4-8.6-39.4 46-96.4 72.6-157.6 72.6-113 0-205.4-90.6-208-203.2-75.6-26.6-128-98.6-128-180.8 0-95 69.4-173.6 160.2-188.8 0.2 6.8 1 13.4 2.6 20.2l10.6 42.6c-61.6 9-109.4 61.8-109.4 126 0 61.2 43.6 114 104 125.6l29 5.6-4 36c-0.4 3-0.8 5.8-0.8 8.8 0 79.4 64.6 144 144 144 48.6 0 93.6-24.4 120.4-65.6l16.2-24.8 26 14.2c65.4 35.6 141.4-16.4 141.6-80.8l-0.4-32.4 25.6-5.2c59.6-12 102.6-64.6 102.6-125.4 0-54-33.8-100-81-118.8-5.6-8.6-23.2-36.4-46.6-73.2 105.8 0.2 191.6 86.2 191.6 192-0.2 82.6-53.4 155.2-129.6 181.4z" />
<glyph unicode="&#xe938;" glyph-name="thunderstorm-sun" horiz-adv-x="1280" d="M320.6 376.6c-7.2 10.6-19.8 16.2-32.8 13.6l-112-22.2 22.2 112c2.4 12.8-2.8 25.6-13.6 32.8l-94.8 63.6 94.8 63.6c10.8 7.2 16 20.2 13.6 32.8l-22.2 112 112-22.2c13-2.6 25.6 2.8 32.8 13.6l63.4 95 63.6-95c7.2-10.6 20-16.2 32.8-13.6l158.8 31.4c17.4 3.4 28.6 20.2 25.2 37.6s-20.6 29-37.6 25.2l-137.8-27.2-78.4 117c-11.8 17.8-41.2 17.8-53.2 0l-78.2-117-138 27.4c-10.6 2.2-21.4-1.2-28.8-8.8-7.6-7.6-10.8-18.4-8.8-29l27.4-138-116.8-78.2c-8.8-6-14.2-15.8-14.2-26.6 0-10.6 5.4-20.6 14.2-26.6l116.8-78.2-27.4-138c-2-10.6 1.2-21.4 8.8-29s18-11 28.8-8.8l137.8 27.4 78.2-117c6.2-9.2 16.4-14.2 26.6-14.2 6.2 0 12.4 1.8 17.8 5.4 14.6 9.8 18.6 29.8 8.8 44.4l-89.8 134.8zM384 680c52.8 0 96-40 102.2-91.2 9.6 7.2 19.6 13.8 30.2 19.8 3 16.8 7.8 33 13.6 48.6-28.6 51.4-83 86.8-146 86.8-92.4 0-167.4-75.2-167.4-167.6s75-167.6 167.4-167.6c0.6 0 1.2 0.2 1.8 0.2 2.2 22.8 7.4 44.8 15.4 65.6-5.6-1-11.2-1.8-17-1.8-57 0-103.4 46.4-103.4 103.4-0.2 57.2 46.2 103.8 103.2 103.8zM1056 352h-119l22 88.2c2.4 9.6 0.2 19.6-5.8 27.4s-15.4 12.4-25.2 12.4h-160c-14.6 0-27.6-10-31-24.2l-64-256c-5-20.4 10.4-39.8 31-39.8h123.2l-26.8-187.4c-3.2-22.2 15.4-36.4 31.6-36.4 17 0 25.4 12.4 27.2 15.2 6.8 10.6 223.8 351.6 223.8 351.6 13.6 21.4-2 49-27 49zM884.6 109.6l11.2 77.8c1.4 9.2-1.4 18.4-7.6 25.4-6 7-15 11-24.2 11h-119l48 192h94l-22-88.2c-5-20.4 10.4-39.8 31-39.8h101.6c-48.2-75.8-85.2-133.8-113-178.2zM1150.6 565.4c-10.6 78.2-77.6 138.6-158.6 138.6-17.2 0-34-2.8-50.4-8.6-39.4 46-96.4 72.6-157.6 72.6-113 0-205.4-90.6-208-203.2-75.6-26.6-128-98.6-128-180.8 0-95 69.6-173.6 160.2-188.8 0.2 6.8 1 13.4 2.6 20.2l10.6 42.6c-61.8 9-109.6 61.8-109.6 126.2 0 61.2 43.6 114 104 125.6l29 5.6-4 36c-0.4 3-0.8 5.8-0.8 8.8 0 79.4 64.6 144 144 144 48.6 0 93.6-24.4 120.4-65.4l16.2-24.8 26 14.2c65.4 35.6 141.4-16.4 141.6-80.8l-0.4-32.4 25.6-5.2c59.6-12 102.6-64.6 102.6-125.4 0-54-33.8-100-81-118.8-5.6-8.6-23.2-36.4-46.6-73.2 105.8 0.2 191.6 86.2 191.6 192 0 82.2-53.2 154.8-129.4 181z" />
<glyph unicode="&#xe939;" glyph-name="thunderstorm" d="M736 448h-147.6l50 149.8c3.2 9.8 1.6 20.4-4.4 28.8s-15.6 13.2-26 13.2h-224c-15.4 0-28.6-11-31.6-26.2l-64-352c-1.6-9.4 0.8-19 7-26.2s15-11.6 24.6-11.6h160v-256c0-14.8 10.2-27.8 24.6-31.2 2.4-0.6 5-0.8 7.4-0.8 12 0 23.2 6.6 28.6 17.6l224 448c5 10 4.4 21.6-1.4 31.2s-16.2 15.4-27.2 15.4zM544 103.6v152.4c0 17.6-14.4 32-32 32h-153.6l52.4 288h153l-50-149.8c-3.2-9.8-1.6-20.4 4.4-28.8s15.6-13.2 26-13.2h140.2l-140.4-280.6zM831.4 735.4c-7.8 89.8-83.6 160.6-175.4 160.6-35.6 0-69.6-10.6-98.4-30.4-45 59-114.6 94.4-189.6 94.4-132.4 0-240-107.6-240-240v-0.8c-76.6-32-128-107-128-191.2 0-114.6 93.4-208 208-208h26l11.6 64h-37.6c-79.4 0-144 64.6-144 144 0 64.6 43.8 121.4 106.6 138.4l26.6 7.2-4 34.4c-0.6 4-1.2 8-1.2 12 0 97 79 176 176 176 64.4 0 123.6-35.8 154.4-93.6l21.2-39.6 30.4 33c21.8 23.4 50.8 36.2 82 36.2 61.8 0 112-50.2 112-112 0-3.2-0.6-6.2-1.6-13.8l-5-40 47 4.8c2.4 0.4 5 0.8 7.6 0.8 79.4 0 144-64.6 144-144 0-76-59.4-137.8-134-143-1.4-4-2.2-8-4.2-12l-26.4-52.8h20.6c114.6 0 208 93.4 208 208 0 109.6-85.2 199.6-192.6 207.4z" />
<glyph unicode="&#xe93a;" glyph-name="fog" horiz-adv-x="1280" d="M336 320h608c114.6 0 208 93.4 208 208 0 109.6-85.2 199.6-192.6 207.4-7.8 89.8-83.6 160.6-175.4 160.6-35.6 0-69.6-10.6-98.4-30.4-45 59-114.6 94.4-189.6 94.4-132.4 0-240-107.6-240-240v-0.8c-76.6-32-128-107-128-191.2 0-114.6 93.4-208 208-208zM298.6 666.4l26.6 7.2-4 34.4c-0.6 4-1.2 8-1.2 12 0 97 79 176 176 176 64.4 0 123.6-35.8 154.4-93.6l21.2-39.6 30.4 33c21.8 23.4 50.8 36.2 82 36.2 61.8 0 112-50.2 112-112 0-3.2-0.6-6.2-1.6-13.8l-5-40 47 4.8c2.4 0.4 5 0.8 7.6 0.8 79.4 0 144-64.6 144-144s-64.6-144-144-144h-608c-79.4 0-144 64.6-144 144 0 64.8 43.8 121.6 106.6 138.6zM432 0h-288c-8.8 0-16-7.2-16-16v-32c0-8.8 7.2-16 16-16h288c8.8 0 16 7.2 16 16v32c0 8.8-7.2 16-16 16zM1264 0h-672c-8.8 0-16-7.2-16-16v-32c0-8.8 7.2-16 16-16h672c8.8 0 16 7.2 16 16v32c0 8.8-7.2 16-16 16zM1152 144v32c0 8.8-7.2 16-16 16h-1120c-8.8 0-16-7.2-16-16v-32c0-8.8 7.2-16 16-16h1120c8.8 0 16 7.2 16 16z" />
<glyph unicode="&#xe93b;" glyph-name="sun-cloud" horiz-adv-x="1280" d="M1116.4 588.8c-32.2 68.2-101.6 115.2-180.4 115.2-83.4 0-155.2-50.4-185-125-65-22.8-111-84.2-111-156.6 0-91.8 74.6-166.4 166.4-166.4h307.2c91.8 0 166.4 74.6 166.4 166.4 0 90.8-73.2 164.8-163.6 166.4zM1113.6 320h-307.2c-56.6 0-102.4 45.8-102.4 102.4 0 55 43.6 99.6 98 102 9.8 65.4 65.8 115.6 134 115.6 71.6 0 129.6-55.6 135-125.8 13 6.2 27.2 10.6 42.6 10.6 56.6 0 102.4-45.8 102.4-102.4s-45.8-102.4-102.4-102.4zM806.4 192c-1.4 0-2.8 0.4-4.2 0.4l8.6-43.2-169.6 33.6c-13.2 2.6-25.6-2.8-32.8-13.6l-96.4-143.6-96.2 143.8c-7.2 10.6-19.8 16.2-32.8 13.6l-169.6-33.6 33.6 169.6c2.4 12.6-2.8 25.6-13.6 32.8l-143.8 96.2 143.8 96.2c10.8 7.2 16 20.2 13.6 32.8l-33.6 169.6 169.6-33.6c13-2.6 25.6 3 32.8 13.6l96.2 143.8 96.2-143.8c7.2-10.6 19.8-16.2 32.8-13.6l216.6 43c17.4 3.4 28.6 20.2 25.2 37.6s-20.2 28.8-37.6 25.2l-195.6-38.8-111 165.8c-6 8.8-16 14.2-26.6 14.2s-20.6-5.4-26.6-14.2l-111-165.8-195.6 38.8c-10.6 2.2-21.2-1.2-28.8-8.8s-10.8-18.4-8.8-28.8l38.8-195.6-165.8-111c-8.8-6-14.2-15.8-14.2-26.6s5.4-20.6 14.2-26.6l165.8-111-38.8-195.6c-2-10.4 1.2-21.4 8.8-28.8 7.6-7.6 18.2-10.8 28.8-8.8l195.6 38.8 111-165.8c6-8.8 16-14.2 26.6-14.2s20.6 5.4 26.6 14.2l110.8 165.8 195.6-38.8c10.8-2.2 21.4 1.2 28.8 8.8 7.6 7.6 10.8 18.4 8.8 28.8l-15.2 77.2h-61zM512 600.6c42 0 80-17 107.6-44.6 12.4 17.4 27.2 32.8 44 46.2-39 38.4-92.6 62.2-151.6 62.2-119.4 0-216.6-97.2-216.6-216.6s97.2-216.4 216.6-216.4c45.6 0 88 14.4 123 38.6-14.2 16-26.2 33.8-35.6 53.2-24.8-17.4-54.8-27.8-87.4-27.8-84.2 0-152.6 68.4-152.6 152.6s68.4 152.6 152.6 152.6z" />
<glyph unicode="&#xe93c;" glyph-name="sun-haze" horiz-adv-x="1280" d="M432 0h-288c-8.8 0-16-7.2-16-16v-32c0-8.8 7.2-16 16-16h288c8.8 0 16 7.2 16 16v32c0 8.8-7.2 16-16 16zM1264 0h-672c-8.8 0-16-7.2-16-16v-32c0-8.8 7.2-16 16-16h672c8.8 0 16 7.2 16 16v32c0 8.8-7.2 16-16 16zM1152 112v32c0 8.8-7.2 16-16 16h-1120c-8.8 0-16-7.2-16-16v-32c0-8.8 7.2-16 16-16h1120c8.8 0 16 7.2 16 16zM1264 320.2h-288c-8.8 0-16-7.2-16-16v-32c0-8.8 7.2-16 16-16h288c8.8 0 16 7.2 16 16v32c0 8.8-7.2 16-16 16zM144 256h672c8.8 0 16 7.2 16 16v32c0 8.8-7.2 16-16 16h-672c-8.8 0-16-7.2-16-16v-32c0-8.8 7.2-16 16-16zM416.6 465c-0.6-9 7-16.8 16.2-16.8h32c8.6 0 15.2 6.8 16 15.2 7.6 81.2 76.2 144.8 159.2 144.8s151.6-63.6 159.2-144.8c0.8-8.4 7.4-15.2 16-15.2h32c9.2 0 16.8 7.6 16.2 16.8-8.6 115.8-105.6 207.2-223.4 207.2s-214.8-91.6-223.4-207.2zM192 448.2c5.6 0 11.4 1.4 16.4 4.6l151.6 90.8c11.6 7 17.6 20.4 15 33.6l-33.6 169.8 169.6-33.6c13-2.6 25.6 2.8 32.8 13.6l96.2 143.6 96.2-143.8c7.2-10.8 19.8-16.2 32.8-13.6l169.6 33.6-33.6-169.8c-2.6-13.2 3.4-26.8 15-33.6l151.6-90.8c5.2-3 10.8-4.6 16.4-4.6 10.8 0 21.4 5.6 27.4 15.6 9.2 15.2 4.2 34.8-11 43.8l-132.2 79.2 38.6 194.6c2 10.4-1.2 21.2-8.8 28.8s-18.2 11-28.8 8.8l-195.6-38.8-111 166c-1.2 1.8-2.8 2.8-4.2 4.2-1.6 1.6-2.6 3.4-4.6 4.6-3.6 2.4-7.6 4-11.6 4.8-1.2 0.2-2.4 0-3.6 0-2.8 0.2-5.8 0.6-8.6 0-4-0.8-8-2.4-11.6-4.8-1.8-1.2-3-3-4.4-4.4s-3.2-2.6-4.4-4.4l-0.2-0.2-110.8-165.6-195.6 38.8c-10.6 2.2-21.2-1.2-28.8-8.8s-10.8-18.4-8.8-28.8l38.6-194.6-132.2-79.2c-15.2-9-20.2-28.8-11-43.8 5.8-10.2 16.4-15.6 27.2-15.6z" />
<glyph unicode="&#xe93d;" glyph-name="sun" d="M512 672.6c-123.6 0-224-100.6-224-224.2s100.4-224.2 224-224.2 224 100.6 224 224.2-100.4 224.2-224 224.2zM512 288.2c-88.2 0-160 71.8-160 160.2s71.8 160.2 160 160.2 160-71.8 160-160.2-71.8-160.2-160-160.2zM1024 448.4c0 10.6-5.4 20.6-14.2 26.6l-165.8 111 38.8 195.8c2 10.4-1.2 21.4-8.8 28.8-7.6 7.6-18.2 11-28.8 8.8l-195.6-38.8-111 166c-12 17.8-41.2 17.8-53.2 0l-111-166-195.6 39c-10.6 2.2-21.2-1.2-28.8-8.8s-10.8-18.4-8.8-28.8l38.8-196-165.8-111c-8.8-6-14.2-16-14.2-26.6s5.4-20.6 14.2-26.6l165.8-111-38.8-195.8c-2-10.4 1.2-21.4 8.8-28.8 7.6-7.6 18.2-11 28.8-8.8l195.6 38.8 111-166c6-9 16-14.2 26.6-14.2s20.6 5.4 26.6 14.2l111 166 195.6-38.8c10.8-2.4 21.4 1.2 28.8 8.8 7.6 7.6 10.8 18.4 8.8 28.8l-38.8 195.8 165.8 111c8.8 6 14.2 16 14.2 26.6zM790.6 352.2c-10.8-7.2-16-20.2-13.6-32.8l33.6-169.8-169.6 33.6c-13.2 2.8-25.6-2.8-32.8-13.6l-96.2-144-96.2 143.8c-6 9-16 14.2-26.6 14.2-2 0-4.2-0.2-6.2-0.6l-169.6-33.6 33.6 169.8c2.4 12.6-2.8 25.6-13.6 32.8l-143.8 96.2 143.8 96.4c10.8 7.2 16 20.2 13.6 32.8l-33.6 169.8 169.6-33.6c13-2.6 25.6 2.8 32.8 13.6l96.2 144 96.2-144c7.2-10.8 19.8-16.2 32.8-13.6l169.6 33.6-33.6-169.8c-2.4-12.6 2.8-25.6 13.6-32.8l143.8-96.4-143.8-96z" />
<glyph unicode="&#xe93e;" glyph-name="sun-dust" d="M247 577l-33.6 169.6 169.6-33.6c12.8-2.4 25.4 2.4 32.8 13.6l96.2 143.8 96.2-143.8c7.6-11.2 21.2-16.6 34.4-13.2l171.4 43c5.8 1.4 10.8 4.4 14.8 8.4 7.6 7.6 11.2 19 8.4 30.4-4.2 17.2-21.6 27.6-38.8 23.2l-149.6-37.4-110.2 164.8c-6 8.8-15.8 14.2-26.6 14.2-10.6 0-20.6-5-26.6-14.2l-110.8-165.8-195.6 38.8c-2 0.4-4 0-6 0-2.2 0-4.2 0.4-6.4 0-4.2-0.8-8.2-2.6-11.6-4.8-1-0.6-1.6-1.8-2.6-2.6-2.2-1.8-4.4-3.8-6.2-6.2-2.4-3.4-4-7.4-4.8-11.6-0.4-2.2 0-4.2 0-6.2s-0.4-4.2 0-6.2v-0.2l38.6-195.6-165.8-110.8c-9-6-14.2-15.8-14.2-26.6 0-10.6 5.4-20.6 14.2-26.6l164.8-110.2-37.4-149.6c-4.4-17.2 6-34.6 23.2-38.8 11.4-2.8 22.8 0.8 30.4 8.4 4 4 7 9 8.4 14.8l43 171.4c3.4 13.2-2 26.8-13.2 34.4l-143.8 96.2 143.8 96.2c11 7.2 16 20.2 13.6 32.8zM613.8 571.4c6.6-5.4 16-5.6 22 0.6l22.6 22.6c6.4 6.4 6.4 17.2-0.4 23.2-87.8 75.8-221.2 72-304.4-11.4-83.4-83.4-87.2-216.6-11.4-304.4 6-7 16.8-7 23.2-0.4l22.6 22.6c6 6 6 15.4 0.6 22-52 62.8-48.6 156.2 10.2 215s152.4 62 215 10.2zM981.4 21.4c-23.6 0-42.6-19.2-42.6-42.6 0-23.6 19-42.6 42.6-42.6s42.6 19.2 42.6 42.6c0 23.4-19.2 42.6-42.6 42.6zM981.4 362.6c-23.6 0-42.6-19.2-42.6-42.6 0-23.6 19-42.6 42.6-42.6s42.6 19.2 42.6 42.6c0 23.6-19.2 42.6-42.6 42.6zM981.4 618.6c23.6 0 42.6 19.2 42.6 42.6 0 23.6-19.2 42.6-42.6 42.6-23.6 0-42.6-19.2-42.6-42.6-0.2-23.4 19-42.6 42.6-42.6zM298.6 21.4c-23.6 0-42.6-19.2-42.6-42.6 0-23.6 19.2-42.6 42.6-42.6 23.6 0 42.6 19.2 42.6 42.6 0.2 23.4-19 42.6-42.6 42.6zM469.4 192c-23.6 0-42.6-19.2-42.6-42.6 0-23.6 19-42.6 42.6-42.6s42.6 19.2 42.6 42.6c0 23.4-19.2 42.6-42.6 42.6zM640 362.6c-23.6 0-42.6-19.2-42.6-42.6 0-23.6 19.2-42.6 42.6-42.6s42.6 19.2 42.6 42.6c0 23.6-19 42.6-42.6 42.6zM810.6 533.4c-23.6 0-42.6-19.2-42.6-42.6 0-23.6 19.2-42.6 42.6-42.6 23.6 0 42.6 19.2 42.6 42.6 0.2 23.4-19 42.6-42.6 42.6zM640 21.4c-23.6 0-42.6-19.2-42.6-42.6 0-23.6 19.2-42.6 42.6-42.6s42.6 19.2 42.6 42.6c0 23.4-19 42.6-42.6 42.6zM810.6 192c-23.6 0-42.6-19.2-42.6-42.6 0-23.6 19.2-42.6 42.6-42.6 23.6 0 42.6 19.2 42.6 42.6 0.2 23.4-19 42.6-42.6 42.6z" />
<glyph unicode="&#xe93f;" glyph-name="wind" d="M16 512h688c119.6 0 213.6 109.2 187.6 233.4-15.2 72.6-73.8 131.2-146.4 146.4-118.2 24.6-223-59.6-232.6-170.8-0.8-9.2 7-16.8 16-16.8h32.4c8.4 0 14.8 6.6 15.8 14.8 8.6 73.2 79 127.6 157.4 109.6 46.2-10.6 83.6-48.2 94.4-94.4 19.2-83.6-44.2-158.2-124.6-158.2h-688c-8.8 0-16-7.2-16-16v-32c0-8.8 7.2-16 16-16zM312 448h-296c-8.8 0-16-7.2-16-16v-32c0-8.8 7.2-16 16-16h298.2c66.8 0 126.6-48.8 133-115.2 7.4-76.2-52.6-140.8-127.4-140.8-65.6 0-119.8 49.6-127.2 113-1 8.4-7.4 14.8-15.8 14.8h-32c-9.2 0-16.8-7.8-16-16.8 8.6-98.2 91-175.2 191.2-175.2 108 0 195.2 89.2 192 197.8-3.2 105.4-95 186.4-200 186.4zM790.6 448h-303c21-18.4 38.8-39.8 52.8-64h252.4c83.6 0 158.2-60.8 166.4-144 9.4-95.4-65.8-176-159.2-176-73 0-134.6 49-153.8 116-2 7-8 12-15.4 12h-32.2c-10 0-18-9.2-15.8-19 23-99 111.2-173 217.2-173 126 0 227.8 104 224 230.8-3.8 122.6-110.8 217.2-233.4 217.2z" />
<glyph unicode="&#xe940;" glyph-name="trash-restore" horiz-adv-x="896" d="M880 832h-208l-67.2 89.6c-17.7 23.421-45.501 38.4-76.8 38.4v0h-160c-31.299 0-59.1-14.979-76.625-38.159l-0.175-0.241-67.2-89.6h-208c-8.837 0-16-7.163-16-16v0-32c0-8.837 7.163-16 16-16v0h37.8l66.4-744.6c4.555-49.183 45.614-87.392 95.599-87.4h464.401c49.986 0.008 91.045 38.217 95.572 87.021l0.028 0.379 66.4 744.6h37.8c8.837 0 16 7.163 16 16v0 32c0 8.837-7.163 16-16 16v0zM342.4 883.2c5.92 7.784 15.174 12.767 25.595 12.8h160.005c10.426-0.033 19.68-5.016 25.542-12.721l0.058-0.079 38.4-51.2h-288zM712 29.2c-1.396-16.41-15.060-29.2-31.712-29.2-0.031 0-0.062 0-0.093 0h-464.395c-0.026 0-0.057 0-0.088 0-16.652 0-30.316 12.79-31.704 29.083l-0.008 0.118-66 738.8h660zM310.66 384h105.34v-240c0-8.837 7.163-16 16-16v0h32c8.837 0 16 7.163 16 16v0 240h105.32c0.044 0 0.096 0 0.148 0 22.386 0 41.583 13.652 49.72 33.085l0.132 0.355c2.959 6.652 4.683 14.412 4.683 22.575 0 15.139-5.927 28.893-15.586 39.069l0.023-0.025-136.24 143.56c-21.38 22.38-59.020 22.4-80.38 0l-136.24-143.5c-9.633-10.165-15.557-23.93-15.557-39.078 0-8.165 1.721-15.928 4.82-22.946l-0.143 0.364c8.264-19.799 27.467-33.46 49.861-33.46 0.035 0 0.070 0 0.105 0h-0.005zM448 572l117.68-124h-235.4z" />
<glyph unicode="&#xe941;" glyph-name="pencil-alt" d="M986.51 847.528l-74.98 74.98c-49.986 49.986-131.030 49.988-181.020 0l-704.834-704.832-25.374-228.368c-3.396-30.572 22.44-56.406 53.008-53.008l228.368 25.374 704.834 704.834c49.984 49.988 49.984 131.034-0.002 181.020zM329.372 265.374c12.498-12.498 32.758-12.496 45.254 0l361.374 361.372 60.118-60.118-448.118-448.118v69.49h-96v96h-69.49l448.118 448.118 60.118-60.118-361.374-361.374c-12.498-12.496-12.498-32.756 0-45.252zM252.294 22.804l-117.99-13.11-60.61 60.61 13.11 117.99 39.706 39.706h69.49v-96h96v-69.49l-39.706-39.706zM941.254 711.764l-99.882-99.882-165.49 165.49 99.882 99.882c25.010 25.010 65.496 25.014 90.51 0l74.98-74.98c25.012-25.012 25.014-65.494 0-90.51z" />
</font>
</defs>
</svg>
