<!-- Generated by IcoMoon.io -->
<svg version="1.1" xmlns="http://www.w3.org/2000/svg"  viewBox="0 0 3426 1024">
<title></title>
<g id="icomoon-ignore">
</g>
<path fill="#c4a37b" d="M1231.349 308.721c39.778 18.009 73.916 43.044 101.622 74.511 27.41 31.368 48.288 68.573 61.944 110.824 13.36 41.559 20.187 86.583 20.187 134.079 0 47.594-6.827 92.519-20.187 133.582-13.755 41.855-34.533 78.962-61.944 110.133-27.706 31.565-61.944 56.401-101.82 74.013-39.876 17.515-86.583 26.42-138.826 26.42-51.455 0-97.862-8.904-138.135-26.42-40.373-17.613-74.807-42.449-102.513-74.013-27.41-31.171-48.189-68.274-61.944-110.133-13.36-41.066-20.187-85.988-20.187-133.582 0-47.496 6.827-92.519 20.187-133.977 13.655-42.352 34.533-79.557 61.944-110.922 27.607-31.466 62.042-56.501 102.313-74.511 81.139-36.314 198.198-35.622 277.357 0zM296.535 52.49c10.49 0 22.364 0.793 35.82 2.573 14.051 1.781 26.519 4.553 37.403 8.212 8.832 2.943 15.088 10.508 16.512 19.512l0.308 3.937v87.866c0 8.014-3.861 15.537-10.49 20.187-6.531 4.651-14.942 5.839-22.66 3.067-6.827-2.573-14.545-4.254-22.956-5.244-31.267-3.562-55.51-0.891-68.274 8.113-5.54 3.896-8.886 13.7-9.635 28.024l-0.161 6.411v60.755h94.102c12.415 0 22.701 9.078 24.471 21.062l0.269 3.675v88.956c0 12.504-9.159 22.718-21.085 24.473l-3.655 0.267h-94.102v500.193c0 12.415-9.078 22.701-21.062 24.471l-3.675 0.269h-100.93c-12.415 0-22.701-9.159-24.471-21.085l-0.269-3.655v-500.193h-78.566c-12.415 0-22.701-9.078-24.471-21.062l-0.269-3.675v-88.956c0-12.504 9.159-22.718 21.085-24.473l3.655-0.267h78.566v-66.691c0-56.996 17.415-101.424 51.652-131.902 33.445-29.783 81.537-44.825 142.885-44.825zM1805.942 281.627c43.437 0 80.544 6.233 110.429 18.406 30.477 12.666 55.61 30.576 74.807 53.333 18.998 22.66 32.457 49.771 40.074 80.646 7.225 28.993 10.785 61.548 10.785 96.773v0 403.715c0 13.655-11.081 24.737-24.737 24.737v0h-100.93c-13.655 0-24.737-11.081-24.737-24.737v0-415.59c0-31.466-8.511-55.214-26.023-72.73s-41.657-26.023-73.916-26.023c-27.309 0-51.058 4.156-70.553 12.271-18.798 8.014-34.731 19.393-47.298 33.841-12.666 14.744-22.462 32.457-28.993 52.542-6.63 20.68-10.093 43.834-10.093 68.97v0 346.721c0 13.655-10.984 24.737-24.737 24.737v0h-100.93c-13.655 0-24.737-11.081-24.737-24.737v0-613.888c0-13.655 11.081-24.737 24.737-24.737v0h94.992c13.755 0 24.737 11.081 24.737 24.737v0 27.111c44.825-43.935 104.095-66.098 177.12-66.098zM2301.256 111.808c12.415 0 22.701 9.159 24.471 21.085l0.269 3.655v159.309h97.566c12.415 0 22.701 9.159 24.471 21.085l0.269 3.655v89.055c0 12.415-9.159 22.701-21.085 24.471l-3.655 0.269h-97.566v356.417c0 12.072 1.089 18.503 2.077 21.867 2.473 3.562 5.342 5.444 13.557 6.431 7.363 0.869 16.371 1.362 27.176 1.523l8.446 0.060h46.31c12.415 0 22.701 9.159 24.471 21.085l0.269 3.655v89.055c0 12.415-9.159 22.701-21.085 24.471l-3.655 0.269h-77.181c-27.607 0-51.75-1.881-71.738-5.739-22.561-4.355-41.559-12.666-56.204-24.837-15.338-12.666-26.42-30.179-33.348-52.049-5.629-17.402-8.68-38.668-9.354-64.794l-0.145-11.496v-365.919h-79.755c-12.415 0-22.701-9.159-24.471-21.085l-0.269-3.655v-89.055c0-12.415 9.159-22.701 21.085-24.471l3.655-0.269h79.755v-159.309c0-12.415 9.159-22.701 21.085-24.471l3.655-0.269h100.93zM743.118 281.438l12.606 0.178c12.11 0.355 21.898 9.287 23.735 20.809l0.31 3.927v106.866c0 13.655-11.081 24.737-24.737 24.737-37.108 0-68.771 5.046-94.397 14.942-24.737 9.698-43.834 23.153-58.578 41.263-15.14 18.503-26.322 41.559-33.246 68.375-6.36 24.257-9.96 52.149-10.858 83.114l-0.224 15.736v273.104c0 12.415-9.159 22.701-21.085 24.471l-3.655 0.269h-100.93c-12.415 0-22.701-9.159-24.471-21.085l-0.269-3.655v-613.888c0-12.415 9.159-22.701 21.085-24.471l3.655-0.269h94.992c12.415 0 22.701 9.159 24.471 21.085l0.269 3.655v48.189c16.427-20.085 34.533-36.711 54.126-49.771 34.095-22.73 76.116-35.356 124.876-37.314l12.33-0.268zM1092.324 420.138c-22.561 0-44.133 4.452-64.219 13.36-19.888 8.807-37.601 21.867-52.542 38.787-15.238 17.415-27.41 39.086-36.116 64.713-9.004 26.22-13.557 56.796-13.557 91.132 0 30.131 3.484 57.305 10.388 81.13l3.167 10.003 3.936 10.695c8.281 20.9 19.005 38.807 31.982 53.225 14.942 16.625 32.652 29.586 52.742 38.491 40.175 17.613 88.263 17.613 128.437 0 19.988-8.904 37.799-21.867 52.742-38.491 15.14-16.821 27.309-38.394 36.019-63.923 8.904-26.124 13.456-56.7 13.456-91.132 0-34.336-4.553-64.911-13.456-91.132-8.807-25.628-20.976-47.395-36.217-64.713-14.942-16.92-32.652-29.981-52.542-38.787-20.085-8.904-41.657-13.36-64.219-13.36z"></path>
<path fill="#3a3a3a" d="M3082.34-3.834c-38.394-14.347-81.139 5.244-95.389 43.636l-325.25 872.939c-14.347 38.394 5.145 81.139 43.538 95.389 8.511 3.165 17.317 4.651 25.925 4.651 30.082 0 58.479-18.406 69.562-48.288l325.25-872.939c14.347-38.394-5.244-81.039-43.636-95.389z"></path>
<path fill="#3a3a3a" d="M3397.981 497.202l-167.326-139.817c-31.565-26.22-78.17-21.967-104.589 9.402-26.22 31.466-22.065 78.27 9.402 104.589l99.246 82.822-99.149 82.822c-31.565 26.22-35.72 73.025-9.498 104.491 14.744 17.515 35.82 26.618 57.095 26.618 16.722 0 33.543-5.641 47.496-17.216l167.326-139.817c16.92-14.051 26.716-34.931 26.716-56.897 0-22.065-9.797-42.847-26.716-56.996z"></path>
</svg>
